<?xml version="1.0" encoding="UTF-8" standalone="no"?>
<!-- Created with Inkscape (http://www.inkscape.org/) -->
<svg
   xmlns:dc="http://purl.org/dc/elements/1.1/"
   xmlns:cc="http://creativecommons.org/ns#"
   xmlns:rdf="http://www.w3.org/1999/02/22-rdf-syntax-ns#"
   xmlns:svg="http://www.w3.org/2000/svg"
   xmlns="http://www.w3.org/2000/svg"
   xmlns:sodipodi="http://sodipodi.sourceforge.net/DTD/sodipodi-0.dtd"
   xmlns:inkscape="http://www.inkscape.org/namespaces/inkscape"
   version="1.0"
   width="200"
   height="200"
   id="svg2325"
   sodipodi:version="0.32"
   inkscape:version="0.46"
   sodipodi:docname="buddy_jump.svg"
   inkscape:output_extension="org.inkscape.output.svg.inkscape">
  <metadata
     id="metadata18">
    <rdf:RDF>
      <cc:Work
         rdf:about="">
        <dc:format>image/svg+xml</dc:format>
        <dc:type
           rdf:resource="http://purl.org/dc/dcmitype/StillImage" />
        <cc:license
           rdf:resource="http://creativecommons.org/licenses/publicdomain/" />
      </cc:Work>
      <cc:License
         rdf:about="http://creativecommons.org/licenses/publicdomain/">
        <cc:permits
           rdf:resource="http://creativecommons.org/ns#Reproduction" />
        <cc:permits
           rdf:resource="http://creativecommons.org/ns#Distribution" />
        <cc:permits
           rdf:resource="http://creativecommons.org/ns#DerivativeWorks" />
      </cc:License>
    </rdf:RDF>
  </metadata>
  <sodipodi:namedview
     inkscape:window-height="726"
     inkscape:window-width="736"
     inkscape:pageshadow="2"
     inkscape:pageopacity="0.0"
     guidetolerance="10.0"
     gridtolerance="10.0"
     objecttolerance="10.0"
     borderopacity="1.0"
     bordercolor="#666666"
     pagecolor="#ffffff"
     id="base"
     showgrid="false"
     inkscape:zoom="2.32"
     inkscape:cx="110.64288"
     inkscape:cy="152.14426"
     inkscape:window-x="130"
     inkscape:window-y="45"
     inkscape:current-layer="g2389" />
  <defs
     id="defs2327">
    <inkscape:perspective
       sodipodi:type="inkscape:persp3d"
       inkscape:vp_x="0 : 100 : 1"
       inkscape:vp_y="0 : 1000 : 0"
       inkscape:vp_z="200 : 100 : 1"
       inkscape:persp3d-origin="100 : 66.666667 : 1"
       id="perspective20" />
  </defs>
  <g
     id="player_buddy">
    <g
       transform="matrix(0.2980632,0,0,0.2980632,-49.530416,-16.678341)"
       id="g2389">
      <path
         d="M 292.13218,203.6279 C 292.13218,207.84904 267.37489,211.27096 236.83523,211.27096 C 206.29556,211.27096 181.53827,207.84904 181.53827,203.6279 C 181.53827,199.40676 206.29556,195.98484 236.83523,195.98484 C 267.37489,195.98484 292.13218,199.40676 292.13218,203.6279 z"
         style="opacity:1;fill:#000000;fill-opacity:0.39215686;stroke:none;stroke-width:2.5;stroke-linecap:round;stroke-linejoin:round;stroke-miterlimit:4;stroke-dasharray:none;stroke-opacity:1"
         id="shadow" />
      <path
         d="M 317.374,88.857718 C 317.374,135.01081 280.68996,163.98127 242.39708,163.98127 C 204.10422,163.98127 173.72665,144.04211 173.72665,97.889004 C 173.72665,51.73595 204.80494,14.278369 243.0978,14.278369 C 281.39068,14.278369 317.374,42.704659 317.374,88.857718 z"
         style="fill:#ffb800;fill-opacity:1;stroke:#000000;stroke-width:2.5;stroke-linecap:round;stroke-linejoin:round;stroke-miterlimit:4;stroke-opacity:1"
         id="body" />
      <path
         d="M 221.37895,69.66767 C 218.33027,88.242648 201.23085,103.86226 189.64515,102.17617 C 178.05944,100.49007 172.9992,85.923442 174.43752,69.66767 C 175.87585,53.411888 187.55807,40.218779 200.5139,40.218779 C 213.46972,40.218779 224.42081,51.134259 221.37895,69.66767 z"
         style="fill:#ffffff;fill-opacity:1;stroke:#000000;stroke-width:2.5;stroke-linecap:round;stroke-linejoin:round;stroke-miterlimit:4;stroke-opacity:1"
         id="eye_right" />
      <path
         d="M 226.16106,68.04161 C 228.73358,88.671008 244.50851,102.44673 257.715,100.57416 C 270.92149,98.701574 282.37544,83.386692 278.63082,65.898754 C 275.03231,49.093139 266.71405,41.069089 251.91289,38.907079 C 237.81072,36.847169 223.5943,47.458389 226.16106,68.04161 z"
         style="fill:#ffffff;fill-opacity:1;stroke:#000000;stroke-width:2.5;stroke-linecap:round;stroke-linejoin:round;stroke-miterlimit:4;stroke-opacity:1"
         id="eye_left" />
      <path
         d="M 200.55097,123.29387 C 207.36243,132.36238 219.34687,135.65784 237.62515,134.87706 C 249.94428,134.35085 259.014,130.50737 263.99438,122.02251 C 255.03393,125.46691 245.05947,127.64769 234.46103,128.10041 C 222.29043,128.62028 210.77214,126.82674 200.55097,123.29387 z"
         style="fill:none;fill-opacity:1;stroke:#000000;stroke-width:2.50000072;stroke-linecap:round;stroke-linejoin:round;stroke-miterlimit:4;stroke-dasharray:none;stroke-opacity:1"
         id="mouth" />
      <path
         d="M 251.2261,69.63061 C 251.2261,71.26236 249.83933,72.58516 248.12866,72.58516 C 246.418,72.58516 245.03123,71.26236 245.03123,69.63061 C 245.03123,67.99886 246.418,66.67606 248.12866,66.67606 C 249.83933,66.67606 251.2261,67.99886 251.2261,69.63061 z"
         style="opacity:1;fill:#000000;fill-opacity:1;stroke:#000000;stroke-width:2.50000238;stroke-linecap:round;stroke-linejoin:round;stroke-miterlimit:4;stroke-dasharray:none;stroke-opacity:1"
         id="inner_eye_left" />
      <path
         d="M 208.3689,70.70171 C 208.3689,72.33346 206.98213,73.656256 205.27146,73.656256 C 203.5608,73.656256 202.17403,72.33346 202.17403,70.70171 C 202.17403,69.06996 203.5608,67.74716 205.27146,67.74716 C 206.98213,67.74716 208.3689,69.06996 208.3689,70.70171 z"
         style="opacity:1;fill:#000000;fill-opacity:1;stroke:#000000;stroke-width:2.50000238;stroke-linecap:round;stroke-linejoin:round;stroke-miterlimit:4;stroke-dasharray:none;stroke-opacity:1"
         id="inner_eye_right" />
      <rect
         style="fill:none;fill-opacity:0;stroke:none;stroke-opacity:0"
         id="hotpoint"
         class="hotpoint"
         width="4.7413793"
         height="3.8793104"
         x="19.827587"
         y="43.965519" />
    </g>
    <script
       type="text/ecmascript"
       id="script2399">
	  //Event.observe(window, 'load', function(){

	  	var player = $('player_buddy');

	  	/* Event.observe(player, 'enterCell', function(data){ */
	  	player.enterCell = function(data){
	  		console.log('Hey, I jump to %o', data);
	  	};

	  //});
	  </script>
  </g>
</svg>
