<?xml version="1.0" encoding="UTF-8" standalone="no"?>
<svg
   xmlns:svg="http://www.w3.org/2000/svg"
   xmlns="http://www.w3.org/2000/svg"
   xmlns:xlink="http://www.w3.org/1999/xlink"
   xmlns:sodipodi="http://sodipodi.sourceforge.net/DTD/sodipodi-0.dtd"
   xmlns:inkscape="http://www.inkscape.org/namespaces/inkscape"
   width="15.0in"
   height="5.0in"
   id="svg2873"
   sodipodi:version="0.32"
   inkscape:version="0.46"
   sodipodi:docname="big.svg"
   inkscape:output_extension="org.inkscape.output.svg.inkscape">

   <g id="big_tree" class="grass">

    <g transform="matrix(12.45,0,0,12.45,-2612.47,-7336.13)">

      <g id="g3701" transform="translate(-0.29,0.99)">

        <path
           id="path3256"
           d="M 250.94,604.32 C 251.08,604.39 251.22,604.48 251.38,604.51 C 251.58,604.56 251.78,604.59 251.99,604.61 C 252.35,604.61 252.70,604.55 253.05,604.51 C 253.17,604.49 253.28,604.46 253.39,604.43 C 253.51,604.39 253.63,604.33 253.67,604.21 C 253.71,604.10 253.71,603.99 253.72,603.88 C 253.72,603.73 253.72,603.57 253.71,603.42 C 253.68,602.75 253.65,602.08 253.60,601.41 C 253.58,601.13 253.57,600.85 253.55,600.57 C 253.53,600.45 253.53,600.33 253.50,600.22 C 253.47,600.11 253.35,600.07 253.24,600.09 C 252.57,600.09 251.90,600.09 251.22,600.09 C 251.13,601.50 251.03,602.91 250.94,604.32 z"
           style="fill:#a02c2c;fill-opacity:1;fill-rule:evenodd;stroke:none;stroke-width:1px;stroke-linecap:butt;stroke-linejoin:miter;stroke-opacity:1" />
        <path
           id="path3302"
           d="M 252.15,588.27 C 250.06,588.27 248.33,589.74 248.09,591.63 C 246.38,592.05 245.12,593.58 245.12,595.41 C 245.12,597.56 246.88,599.31 249.06,599.31 C 249.76,599.31 250.41,599.13 250.98,598.82 C 251.81,600.03 253.20,600.83 254.77,600.83 C 257.31,600.83 259.38,598.74 259.38,596.17 C 259.38,595.19 259.08,594.28 258.57,593.52 C 258.60,593.38 258.62,593.23 258.62,593.08 C 258.62,591.84 257.46,590.83 255.99,590.75 C 255.41,589.31 253.91,588.27 252.15,588.27 z"
           style="opacity:0.88;fill:#55d400;fill-opacity:1;fill-rule:nonzero;stroke:none;stroke-width:6;stroke-linecap:round;stroke-linejoin:miter;marker:none;marker-start:none;marker-mid:none;marker-end:none;stroke-miterlimit:4;stroke-dasharray:none;stroke-dashoffset:0;stroke-opacity:1;visibility:visible;display:inline;overflow:visible;enable-background:accumulate" />
        <path
           id="path3304"
           d="M 251.16,595.60 C 250.36,595.60 249.66,595.95 249.18,596.49 C 249.06,596.47 248.94,596.45 248.82,596.45 C 247.98,596.45 247.30,597.05 247.30,597.79 C 247.30,597.89 247.32,598.00 247.35,598.10 C 247.14,598.38 247.02,598.73 247.02,599.12 C 247.02,600.06 247.76,600.83 248.68,600.83 C 248.72,600.83 248.77,600.83 248.81,600.82 C 249.15,601.34 249.78,601.68 250.49,601.68 C 251.36,601.68 252.10,601.17 252.35,600.45 C 253.19,600.02 253.77,599.16 253.77,598.17 C 253.77,596.75 252.60,595.60 251.16,595.60 z"
           style="opacity:1;fill:#55d400;fill-opacity:1;fill-rule:nonzero;stroke:none;stroke-width:6;stroke-linecap:round;stroke-linejoin:miter;marker:none;marker-start:none;marker-mid:none;marker-end:none;stroke-miterlimit:4;stroke-dasharray:none;stroke-dashoffset:0;stroke-opacity:1;visibility:visible;display:inline;overflow:visible;enable-background:accumulate" />
        <path
           style="fill:url(#linearGradient3300);fill-opacity:1;fill-rule:evenodd;stroke:none;stroke-width:1px;stroke-linecap:butt;stroke-linejoin:miter;stroke-opacity:1"
           d="M 250.94,604.32 C 251.08,604.39 251.22,604.48 251.38,604.51 C 251.58,604.56 251.78,604.59 251.99,604.61 C 252.35,604.61 252.70,604.55 253.05,604.51 C 253.17,604.49 253.28,604.46 253.39,604.43 C 253.51,604.39 253.63,604.33 253.67,604.21 C 253.71,604.10 253.71,603.99 253.72,603.88 C 253.72,603.73 253.72,603.57 253.71,603.42 C 253.68,602.75 253.65,602.08 253.60,601.41 C 253.58,601.13 253.57,600.85 253.55,600.57 C 253.53,600.45 253.53,600.33 253.50,600.22 C 253.47,600.11 253.35,600.07 253.24,600.09 C 252.57,600.09 251.90,600.09 251.22,600.09 C 251.13,601.50 251.03,602.91 250.94,604.32 z"
           id="path3260" />
        <path
           style="opacity:0.88;fill:#008000;fill-opacity:1;fill-rule:nonzero;stroke:none;stroke-width:6;stroke-linecap:round;stroke-linejoin:miter;marker:none;marker-start:none;marker-mid:none;marker-end:none;stroke-miterlimit:4;stroke-dasharray:none;stroke-dashoffset:0;stroke-opacity:1;visibility:visible;display:inline;overflow:visible;enable-background:accumulate"
           d="M 252.15,588.27 C 250.06,588.27 248.33,589.74 248.09,591.63 C 246.38,592.05 245.12,593.58 245.12,595.41 C 245.12,596.83 245.89,598.09 247.05,598.77 C 247.03,598.88 247.02,599.00 247.02,599.12 C 247.02,600.06 247.76,600.83 248.68,600.83 C 248.72,600.83 248.77,600.83 248.81,600.82 C 249.15,601.34 249.78,601.68 250.49,601.68 C 251.36,601.68 252.10,601.17 252.35,600.45 C 252.44,600.40 252.53,600.35 252.62,600.29 C 253.26,600.64 253.99,600.83 254.77,600.83 C 257.31,600.83 259.38,598.74 259.38,596.17 C 259.38,595.19 259.08,594.28 258.57,593.52 C 258.60,593.38 258.62,593.23 258.62,593.08 C 258.62,591.84 257.46,590.83 255.99,590.75 C 255.41,589.31 253.91,588.27 252.15,588.27 z"
           id="path3239" />
        <path
           style="opacity:0.88;fill:url(#linearGradient3237);fill-opacity:1;fill-rule:nonzero;stroke:none;stroke-width:6;stroke-linecap:round;stroke-linejoin:miter;marker:none;marker-start:none;marker-mid:none;marker-end:none;stroke-miterlimit:4;stroke-dasharray:none;stroke-dashoffset:0;stroke-opacity:1;visibility:visible;display:inline;overflow:visible;enable-background:accumulate"
           d="M 252.15,588.27 C 250.06,588.27 248.33,589.74 248.09,591.63 C 246.38,592.05 245.12,593.58 245.12,595.41 C 245.12,597.56 246.88,599.31 249.06,599.31 C 249.76,599.31 250.41,599.13 250.98,598.82 C 251.81,600.03 253.20,600.83 254.77,600.83 C 257.31,600.83 259.38,598.74 259.38,596.17 C 259.38,595.19 259.08,594.28 258.57,593.52 C 258.60,593.38 258.62,593.23 258.62,593.08 C 258.62,591.84 257.46,590.83 255.99,590.75 C 255.41,589.31 253.91,588.27 252.15,588.27 z"
           id="path3193" />
        <path
           style="opacity:1;fill:url(#linearGradient3229);fill-opacity:1;fill-rule:nonzero;stroke:none;stroke-width:6;stroke-linecap:round;stroke-linejoin:miter;marker:none;marker-start:none;marker-mid:none;marker-end:none;stroke-miterlimit:4;stroke-dasharray:none;stroke-dashoffset:0;stroke-opacity:1;visibility:visible;display:inline;overflow:visible;enable-background:accumulate"
           d="M 251.16,595.60 C 250.36,595.60 249.66,595.95 249.18,596.49 C 249.06,596.47 248.94,596.45 248.82,596.45 C 247.98,596.45 247.30,597.05 247.30,597.79 C 247.30,597.89 247.32,598.00 247.35,598.10 C 247.14,598.38 247.02,598.73 247.02,599.12 C 247.02,600.06 247.76,600.83 248.68,600.83 C 248.72,600.83 248.77,600.83 248.81,600.82 C 249.15,601.34 249.78,601.68 250.49,601.68 C 251.36,601.68 252.10,601.17 252.35,600.45 C 253.19,600.02 253.77,599.16 253.77,598.17 C 253.77,596.75 252.60,595.60 251.16,595.60 z"
           id="path3204" />
        <path
           style="fill:none;fill-opacity:1;fill-rule:evenodd;stroke:#000000;stroke-width:1;stroke-linecap:butt;stroke-linejoin:miter;stroke-miterlimit:4;stroke-dasharray:none;stroke-opacity:1"
           d="M 252.15,588.27 C 250.06,588.27 248.33,589.74 248.09,591.63 C 246.38,592.05 245.12,593.58 245.12,595.41 C 245.12,595.48 245.12,595.56 245.12,595.64 C 245.12,595.64 245.12,595.64 245.12,595.65 C 245.13,595.69 245.13,595.74 245.13,595.78 C 245.14,595.79 245.14,595.80 245.14,595.81 C 245.14,595.85 245.15,595.89 245.15,595.93 C 245.17,596.09 245.21,596.25 245.25,596.41 C 245.25,596.41 245.25,596.41 245.25,596.41 C 245.25,596.43 245.26,596.45 245.27,596.47 C 245.30,596.60 245.35,596.73 245.40,596.85 C 245.41,596.87 245.41,596.90 245.42,596.92 C 245.42,596.92 245.43,596.92 245.43,596.92 C 245.44,596.95 245.45,596.98 245.47,597.01 C 245.48,597.05 245.50,597.09 245.52,597.12 C 245.53,597.15 245.54,597.17 245.55,597.19 C 245.58,597.24 245.61,597.29 245.64,597.34 C 245.64,597.36 245.65,597.37 245.66,597.38 C 245.68,597.42 245.71,597.46 245.73,597.49 C 245.74,597.50 245.74,597.51 245.75,597.52 C 245.76,597.54 245.77,597.56 245.78,597.58 C 245.78,597.58 245.79,597.58 245.79,597.59 C 245.80,597.61 245.82,597.62 245.83,597.64 C 245.86,597.68 245.88,597.71 245.90,597.74 C 245.91,597.75 245.92,597.77 245.93,597.78 C 245.97,597.83 246.01,597.87 246.05,597.92 C 246.05,597.92 246.05,597.92 246.05,597.93 C 246.08,597.96 246.10,597.99 246.13,598.01 C 246.13,598.02 246.14,598.02 246.14,598.03 C 246.18,598.07 246.22,598.11 246.26,598.15 C 246.32,598.21 246.37,598.26 246.43,598.31 C 246.43,598.31 246.44,598.32 246.44,598.32 C 246.45,598.33 246.46,598.34 246.47,598.34 C 246.51,598.38 246.56,598.42 246.60,598.46 C 246.63,598.48 246.66,598.50 246.69,598.52 C 246.70,598.52 246.70,598.53 246.70,598.53 C 246.75,598.56 246.79,598.60 246.84,598.63 C 246.91,598.68 246.98,598.72 247.05,598.77 C 247.04,598.82 247.03,598.88 247.03,598.93 C 247.03,598.94 247.03,598.94 247.03,598.94 C 247.02,599.00 247.02,599.06 247.02,599.12 C 247.02,599.24 247.03,599.35 247.05,599.46 C 247.07,599.57 247.11,599.68 247.15,599.78 C 247.34,600.24 247.72,600.60 248.19,600.75 C 248.24,600.77 248.29,600.78 248.34,600.79 C 248.34,600.79 248.35,600.79 248.35,600.79 C 248.45,600.82 248.57,600.83 248.68,600.83 C 248.72,600.83 248.77,600.83 248.81,600.82 C 248.85,600.89 248.90,600.95 248.95,601.01 C 248.95,601.01 248.95,601.01 248.95,601.01 C 249.21,601.30 249.56,601.52 249.97,601.62 C 250.01,601.63 250.06,601.64 250.10,601.65 C 250.10,601.65 250.10,601.65 250.10,601.65 C 250.18,601.66 250.27,601.68 250.36,601.68 C 250.40,601.68 250.45,601.68 250.49,601.68 C 250.54,601.68 250.60,601.68 250.65,601.68 C 250.81,601.67 250.97,601.64 251.12,601.59 C 251.12,601.59 251.12,601.59 251.12,601.59 C 251.06,602.50 251.00,603.41 250.94,604.31 C 251.08,604.38 251.22,604.48 251.38,604.51 C 251.58,604.56 251.79,604.59 251.99,604.60 C 252.35,604.61 252.70,604.55 253.05,604.51 C 253.17,604.49 253.28,604.46 253.39,604.43 C 253.42,604.42 253.45,604.41 253.48,604.40 C 253.56,604.36 253.64,604.30 253.68,604.21 C 253.71,604.10 253.71,603.99 253.72,603.88 C 253.72,603.73 253.72,603.58 253.71,603.42 C 253.68,602.75 253.65,602.08 253.60,601.41 C 253.59,601.16 253.57,600.91 253.55,600.66 C 253.58,600.67 253.61,600.68 253.64,600.69 C 253.64,600.69 253.64,600.69 253.64,600.69 C 253.66,600.69 253.67,600.69 253.68,600.70 C 253.85,600.74 254.02,600.77 254.19,600.79 C 254.19,600.79 254.19,600.79 254.20,600.79 C 254.21,600.79 254.23,600.79 254.24,600.79 C 254.27,600.80 254.29,600.80 254.31,600.80 C 254.46,600.82 254.61,600.83 254.77,600.83 C 254.93,600.83 255.09,600.82 255.24,600.80 C 255.32,600.79 255.40,600.78 255.47,600.77 C 256.46,600.62 257.35,600.15 258.03,599.46 C 258.08,599.41 258.13,599.36 258.18,599.30 C 258.88,598.53 259.32,597.52 259.38,596.41 C 259.38,596.33 259.38,596.25 259.38,596.17 C 259.38,595.19 259.08,594.28 258.57,593.52 C 258.58,593.49 258.58,593.45 258.59,593.41 C 258.61,593.30 258.62,593.19 258.62,593.08 C 258.62,591.92 257.60,590.95 256.26,590.78 C 256.17,590.76 256.08,590.76 255.99,590.75 C 255.41,589.31 253.91,588.27 252.15,588.27 z"
           id="path3307" />

      </g>dirname(__FILE__) . '/../../../public/resources/css'.$location
    </g>


	  <defs
	     id="defs3317">
	    <inkscape:perspective
	       sodipodi:type="inkscape:persp3d"
	       inkscape:vp_x="0 : 225 : 1"
	       inkscape:vp_y="0 : 1000 : 0"
	       inkscape:vp_z="1350 : 225 : 1"
	       inkscape:persp3d-origin="675 : 150 : 1"
	       id="perspective3321" />
	    <linearGradient
	       y2="531.41"
	       x2="198.00"
	       y1="531.41"
	       x1="140.37"
	       gradientTransform="matrix(0.11,0,0,0.11,270.98,546.80)"
	       gradientUnits="userSpaceOnUse"
	       id="linearGradient3697"
	       xlink:href="#linearGradient3223"
	       inkscape:collect="always" />
	    <linearGradient
	       y2="496.51"
	       x2="245.87"
	       y1="496.51"
	       x1="124.15"
	       gradientTransform="matrix(0.11,0,0,0.11,270.98,546.80)"
	       gradientUnits="userSpaceOnUse"
	       id="linearGradient3693"
	       xlink:href="#linearGradient3231"
	       inkscape:collect="always" />
	    <linearGradient
	       y2="599.35"
	       x2="276.05"
	       y1="599.35"
	       x1="252.34"
	       gradientTransform="matrix(0.11,0,0,0.11,261.78,542.54)"
	       gradientUnits="userSpaceOnUse"
	       id="linearGradient3687"
	       xlink:href="#linearGradient3294"
	       inkscape:collect="always" />
	    <inkscape:perspective
	       sodipodi:type="inkscape:persp3d"
	       inkscape:vp_x="0 : 32.5 : 1"
	       inkscape:vp_y="0 : 1000 : 0"
	       inkscape:vp_z="85 : 32.5 : 1"
	       inkscape:persp3d-origin="42.5 : 21.66 : 1"
	       id="perspective3598" />
	    <linearGradient
	       id="linearGradient2202">
	      <stop
	         style="stop-color:#797979;stop-opacity:1;"
	         offset="0"
	         id="stop2204" />
	      <stop
	         style="stop-color:#cbcbcb;stop-opacity:1;"
	         offset="1"
	         id="stop2206" />
	    </linearGradient>
	    <linearGradient
	       gradientTransform="matrix(0.11,0,0,0.11,221.36,532.09)"
	       gradientUnits="userSpaceOnUse"
	       y2="599.35"
	       x2="276.05"
	       y1="599.35"
	       x1="252.34"
	       id="linearGradient3300"
	       xlink:href="#linearGradient3294"
	       inkscape:collect="always" />
	    <linearGradient
	       gradientTransform="matrix(0.11,0,0,0.11,230.56,536.35)"
	       gradientUnits="userSpaceOnUse"
	       y2="496.51"
	       x2="245.87"
	       y1="496.51"
	       x1="124.15"
	       id="linearGradient3237"
	       xlink:href="#linearGradient3231"
	       inkscape:collect="always" />
	    <linearGradient
	       gradientTransform="matrix(0.11,0,0,0.11,230.56,536.35)"
	       gradientUnits="userSpaceOnUse"
	       y2="531.41"
	       x2="198.00"
	       y1="531.41"
	       x1="140.37"
	       id="linearGradient3229"
	       xlink:href="#linearGradient3223"
	       inkscape:collect="always" />
	    <inkscape:perspective
	       id="perspective10"
	       inkscape:persp3d-origin="372.04 : 350.78 : 1"
	       inkscape:vp_z="744.09 : 526.18 : 1"
	       inkscape:vp_y="0 : 1000 : 0"
	       inkscape:vp_x="0 : 526.18 : 1"
	       sodipodi:type="inkscape:persp3d" />
	    <linearGradient
	       id="linearGradient3223"
	       inkscape:collect="always">
	      <stop
	         id="stop3225"
	         offset="0"
	         style="stop-color:#00d400;stop-opacity:1;" />
	      <stop
	         id="stop3227"
	         offset="1"
	         style="stop-color:#00d400;stop-opacity:0;" />
	    </linearGradient>
	    <linearGradient
	       id="linearGradient3231"
	       inkscape:collect="always">
	      <stop
	         id="stop3233"
	         offset="0"
	         style="stop-color:#55d400;stop-opacity:1;" />
	      <stop
	         id="stop3235"
	         offset="1"
	         style="stop-color:#55d400;stop-opacity:0;" />
	    </linearGradient>
	    <linearGradient
	       id="linearGradient3294"
	       inkscape:collect="always">
	      <stop
	         id="stop3296"
	         offset="0"
	         style="stop-color:#c87137;stop-opacity:1;" />
	      <stop
	         id="stop3298"
	         offset="1"
	         style="stop-color:#c87137;stop-opacity:0;" />
	    </linearGradient>
	    <inkscape:perspective
	       id="perspective4665"
	       inkscape:persp3d-origin="372.04 : 350.78 : 1"
	       inkscape:vp_z="744.09 : 526.18 : 1"
	       inkscape:vp_y="0 : 1000 : 0"
	       inkscape:vp_x="0 : 526.18 : 1"
	       sodipodi:type="inkscape:persp3d" />
	    <filter
	       height="1.42"
	       y="-0.21"
	       width="1.21"
	       x="-0.10"
	       id="filter2894"
	       inkscape:collect="always">
	      <feGaussianBlur
	         id="feGaussianBlur2896"
	         stdDeviation="0.72"
	         inkscape:collect="always" />
	    </filter>
	    <radialGradient
	       r="8.25"
	       fy="222.04"
	       fx="14.20"
	       cy="222.04"
	       cx="14.20"
	       gradientTransform="scale(1.39,0.71)"
	       gradientUnits="userSpaceOnUse"
	       id="radialGradient1991"
	       xlink:href="#linearGradient2057"
	       inkscape:collect="always" />
	    <linearGradient
	       inkscape:collect="always"
	       id="linearGradient2057">
	      <stop
	         style="stop-color:#000000;stop-opacity:1;"
	         offset="0"
	         id="stop2059" />
	      <stop
	         style="stop-color:#000000;stop-opacity:0;"
	         offset="1"
	         id="stop2061" />
	    </linearGradient>
	    <inkscape:perspective
	       id="perspective4687"
	       inkscape:persp3d-origin="64 : 42.66 : 1"
	       inkscape:vp_z="128 : 64 : 1"
	       inkscape:vp_y="0 : 1000 : 0"
	       inkscape:vp_x="0 : 64 : 1"
	       sodipodi:type="inkscape:persp3d" />
	    <inkscape:perspective
	       id="perspective7486"
	       inkscape:persp3d-origin="372.04 : 350.78 : 1"
	       inkscape:vp_z="744.09 : 526.18 : 1"
	       inkscape:vp_y="0 : 1000 : 0"
	       inkscape:vp_x="0 : 526.18 : 1"
	       sodipodi:type="inkscape:persp3d" />
	    <filter
	       id="filter7298"
	       inkscape:collect="always">
	      <feGaussianBlur
	         id="feGaussianBlur7300"
	         stdDeviation="1.09"
	         inkscape:collect="always" />
	    </filter>
	    <filter
	       id="filter7474"
	       inkscape:collect="always">
	      <feGaussianBlur
	         id="feGaussianBlur7476"
	         stdDeviation="0.46"
	         inkscape:collect="always" />
	    </filter>
	    <filter
	       id="filter7426"
	       inkscape:collect="always">
	      <feGaussianBlur
	         id="feGaussianBlur7428"
	         stdDeviation="0.42"
	         inkscape:collect="always" />
	    </filter>
	    <filter
	       id="filter7370"
	       inkscape:collect="always">
	      <feGaussianBlur
	         id="feGaussianBlur7372"
	         stdDeviation="0.53"
	         inkscape:collect="always" />
	    </filter>
	    <filter
	       height="1.26"
	       y="-0.13"
	       width="1.13"
	       x="-0.06"
	       id="filter3802"
	       inkscape:collect="always">
	      <feGaussianBlur
	         id="feGaussianBlur3804"
	         stdDeviation="8.68"
	         inkscape:collect="always" />
	    </filter>
	    <filter
	       id="filter6572"
	       inkscape:collect="always">
	      <feGaussianBlur
	         id="feGaussianBlur6574"
	         stdDeviation="2.86"
	         inkscape:collect="always" />
	    </filter>

	    <!--
		<filter id="distant" filterUnits="userSpaceOnUse" x="20" y="70" width="375" height="220">
	       <feColorMatrix result="out1" in="SourceGraphic" type="luminanceToAlpha"/>
	       <feDiffuseLighting result="out2" in="out1" lighting-color="#FFF"
	         diffuseConstant="1.4" kernelUnitLength="1,1" surfaceScale="3">
	         <feDistantLight azimuth="40" elevation="30"/>
	       </feDiffuseLighting>
	       <feComposite in2="out2" in="SourceGraphic" operator="arithmetic"
	         k1="1" k2="0.3" k3="0.4" k4="0"/>
	    </filter>
	    -->

	  </defs>
  </g>

</svg>