<svg
   xmlns:svg="http://www.w3.org/2000/svg"
   xmlns="http://www.w3.org/2000/svg"
   xmlns:xlink="http://www.w3.org/1999/xlink"
   xmlns:sodipodi="http://sodipodi.sourceforge.net/DTD/sodipodi-0.dtd"
   xmlns:inkscape="http://www.inkscape.org/namespaces/inkscape"
   width="15.0in"
   height="5.0in"
   id="svg2873"
   sodipodi:version="0.32"
   inkscape:version="0.46"
   sodipodi:docname="big.svg"
   inkscape:output_extension="org.inkscape.output.svg.inkscape">
  <g id="medium_grass"
     class="grass">
    <g transform="matrix(2.46, 0, 0, 2.46, -43, -540)">
      <path
         style="fill:#00b300;fill-opacity:1;fill-rule:evenodd;stroke:none;stroke-width:1px;stroke-linecap:butt;stroke-linejoin:miter;stroke-opacity:1"
         d="M 17.71,206.59 C 18.01,206.63 19.10,206.30 19.60,206.97 C 20.00,207.50 20.63,207.72 21.40,207.92 C 22.02,208.07 22.17,207.73 22.54,207.82 C 23.38,208.03 23.51,208.67 24.63,208.67 C 25.25,208.67 25.21,208.97 25.67,209.43 C 26.21,209.97 26.84,209.80 27.28,210.38 C 27.82,211.10 27.95,210.64 28.13,209.90 C 28.21,209.60 27.22,208.87 26.99,208.58 C 26.44,207.84 25.59,207.18 25.13,206.25 C 24.70,205.40 24.04,204.76 23.29,204.20 C 22.98,203.97 21.62,204.32 21.31,204.32 C 20.55,204.32 19.81,204.43 19.13,204.60 C 18.05,204.87 17.61,205.55 16.95,206.21 C 16.46,206.70 16.85,207.04 16.86,207.06 C 17.05,207.54 17.69,206.70 17.71,206.59 z"
         id="path2843"
         sodipodi:nodetypes="cccccccccccccccc" />
      <path
         style="fill:#00b300;fill-opacity:1;fill-rule:evenodd;stroke:none;stroke-width:1px;stroke-linecap:butt;stroke-linejoin:miter;stroke-opacity:1"
         d="M 14.77,206.21 C 14.55,206.60 13.96,206.97 13.26,206.97 C 12.80,206.97 12.46,207.58 12.12,207.92 C 11.68,208.35 11.45,208.77 10.98,209.24 C 10.54,209.69 9.60,209.60 8.99,209.90 C 8.49,210.16 8.20,210.96 7.86,211.42 C 7.21,212.28 6.72,211.46 6.25,212.08 C 5.75,212.74 5.75,213.14 5.02,213.69 C 4.49,214.09 4.48,214.86 3.97,214.36 C 3.80,214.18 4.36,212.83 4.45,212.65 C 4.69,212.18 4.80,211.63 4.92,211.14 C 5.02,210.75 5.20,210.31 5.30,209.90 C 5.44,209.34 5.74,208.98 5.87,208.48 C 6.03,207.85 6.10,207.37 6.25,206.78 C 6.43,206.05 6.93,205.57 7.10,204.88 C 7.22,204.40 8.00,203.88 8.43,203.56 C 8.97,203.15 9.40,202.88 9.94,202.61 C 10.43,202.37 11.26,202.33 11.84,202.33 C 13.55,202.33 13.42,201.92 14.39,202.89 C 14.82,203.32 15.47,204.00 15.58,204.57 C 15.67,205.01 14.86,205.78 14.77,206.21 z"
         id="path2847"
         sodipodi:nodetypes="ccccccccccccccccccccc" />
      <path
         sodipodi:type="arc"
         style="opacity:0.5;fill:url(#radialGradient1991);fill-opacity:1;fill-rule:evenodd;stroke:none;stroke-width:2;stroke-miterlimit:4;stroke-opacity:1;filter:url(#filter2894)"
         id="path1349"
         sodipodi:cx="20.45"
         sodipodi:cy="158.69"
         sodipodi:rx="7.94"
         sodipodi:ry="4.08"
         d="M 28.40,158.69 A 7.94,4.08 0 1 1 12.51,158.69 A 7.94,4.08 0 1 1 28.40,158.69 z"
         transform="translate(-2.83,61.63)" />
      <path
         style="fill:#5c2700;fill-opacity:1"
         d="M 12.12,201.60 C 11.34,201.63 10.55,201.77 10.09,202.00 C 7.97,203.10 5.65,206.26 6.09,207.44 C 6.16,207.63 5.90,208.36 5.53,209.10 C 5.15,209.84 4.84,210.65 4.84,210.91 C 4.84,211.17 4.59,211.96 4.28,212.66 C 3.69,213.99 3.67,215.01 4.21,215.19 C 4.39,215.25 5.06,214.63 5.68,213.78 C 6.31,212.93 6.96,212.27 7.15,212.35 C 7.60,212.52 7.84,212.35 8.78,211.10 C 9.44,210.21 9.66,210.08 10.31,210.22 C 10.98,210.37 11.13,210.23 11.90,209.03 C 13.13,207.12 13.66,206.73 14.62,206.94 C 15.40,207.11 15.44,207.16 15.65,209.35 C 15.96,212.54 15.88,213.26 15.24,214.16 C 14.80,214.79 14.69,215.33 14.71,216.82 C 14.76,219.78 14.88,220.02 16.46,220.19 C 19.05,220.48 19.58,220.32 19.12,219.32 C 18.96,218.98 18.73,218.12 18.56,217.41 C 18.28,216.23 18.31,215.99 18.93,214.82 C 19.61,213.54 19.61,213.53 19.09,212.97 C 18.61,212.46 17.96,209.37 17.96,207.60 C 17.96,206.85 19.17,206.92 20.53,207.75 C 21.33,208.25 21.69,208.35 21.96,208.13 C 22.23,207.90 22.48,207.99 22.87,208.44 C 23.27,208.90 23.62,209.00 24.40,208.94 C 25.30,208.87 25.44,208.94 25.59,209.53 C 25.71,210.03 25.98,210.25 26.53,210.32 C 27.10,210.38 27.39,210.65 27.68,211.35 C 28.40,213.06 29.08,212.41 28.59,210.47 C 28.35,209.51 27.80,208.70 26.53,207.32 C 25.58,206.29 24.74,205.23 24.65,204.97 C 24.34,204.06 23.16,203.44 21.71,203.47 C 20.66,203.50 19.99,203.72 18.78,204.47 C 16.97,205.59 16.59,205.67 16.59,204.91 C 16.59,204.32 14.95,202.32 14.06,201.85 C 13.68,201.64 12.90,201.57 12.12,201.60 z M 11.46,202.41 C 13.00,202.17 13.85,202.47 14.96,203.69 C 15.60,204.38 15.58,204.42 15.03,204.13 C 14.29,203.75 12.14,203.71 10.84,204.07 C 10.26,204.23 9.30,204.94 8.40,205.85 C 7.58,206.68 6.85,207.35 6.74,207.35 C 6.64,207.35 6.65,206.85 6.81,206.25 C 7.06,205.26 7.67,204.58 9.74,202.91 C 9.95,202.74 10.71,202.53 11.46,202.41 z M 21.59,204.35 C 22.56,204.35 24.24,205.06 24.24,205.47 C 24.24,205.57 24.55,206.10 24.93,206.66 C 25.32,207.22 25.60,207.74 25.56,207.78 C 25.51,207.83 25.05,207.94 24.53,208.03 C 23.70,208.19 23.46,208.10 22.93,207.44 C 22.34,206.71 22.33,206.72 21.96,207.22 C 21.60,207.72 21.55,207.72 20.56,206.85 C 19.52,205.94 19.08,205.86 17.56,206.41 C 17.12,206.57 17.14,206.51 17.68,206.07 C 18.94,205.05 20.52,204.35 21.59,204.35 z M 12.74,204.63 C 14.28,204.63 14.41,204.68 14.40,205.25 C 14.40,205.68 14.13,205.97 13.53,206.25 C 13.04,206.48 12.26,207.24 11.81,207.94 C 11.10,209.04 10.88,209.18 10.24,209.07 C 9.62,208.95 9.41,209.11 8.65,210.19 C 7.74,211.49 7.31,211.75 7.31,211.03 C 7.31,210.81 7.20,210.65 7.09,210.66 C 6.98,210.67 6.36,211.50 5.71,212.50 C 4.38,214.58 4.32,214.11 5.46,210.82 C 5.99,209.31 6.44,208.64 7.87,207.19 C 10.06,204.96 10.68,204.63 12.74,204.63 z M 16.21,207.28 C 16.29,207.47 16.29,207.78 16.21,207.97 C 16.14,208.16 16.09,208.00 16.09,207.63 C 16.09,207.25 16.14,207.10 16.21,207.28 z M 25.96,208.00 C 26.06,208.03 26.27,208.16 26.62,208.44 C 27.09,208.82 27.49,209.23 27.49,209.35 C 27.50,209.46 27.21,209.53 26.84,209.53 C 26.43,209.53 26.15,209.39 26.15,209.16 C 26.15,208.95 26.07,208.53 25.96,208.25 C 25.89,208.05 25.86,207.98 25.96,208.00 z M 17.31,214.66 C 17.38,214.85 17.38,215.16 17.31,215.35 C 17.23,215.54 17.18,215.38 17.18,215.00 C 17.18,214.63 17.23,214.47 17.31,214.66 z"
         id="path1649" />
    </g>
  </g>
</svg>