<?xml version='1.0' encoding='UTF-8'?>
<!DOCTYPE svg PUBLIC "-//W3C//DTD SVG 1.0//EN" "http://www.w3.org/TR/2001/REC-SVG-20010904/DTD/svg10.dtd ">
<svg width="4.0in" height="4.0in" xmlns="http://www.w3.org/2000/svg" >
	<g cells="85" rows="17" id="map" columns="5">
		<polygon cell_SE="cell_4" stroke="black" points="11.25, 19.48557158514987  22.5, 38.97114317029974  45.0, 38.97114317029974  56.25, 19.48557158514987  45.0, 0.0  22.5, 0.0  " stroke-width="0.01in" cell_S="cell_10" id="cell_0" cell_SW="cell_5" fill="none"/>
		<polygon cell_SE="cell_5" stroke="black" points="78.75, 19.48557158514987  90.0, 38.97114317029974  112.5, 38.97114317029974  123.75, 19.48557158514987  112.5, 0.0  90.0, 0.0  " stroke-width="0.01in" cell_S="cell_11" id="cell_1" cell_SW="cell_6" fill="none"/>
		<polygon cell_SE="cell_6" stroke="black" points="146.25, 19.48557158514987  157.5, 38.97114317029974  180.0, 38.97114317029974  191.25, 19.48557158514987  180.0, 0.0  157.5, 0.0  " stroke-width="0.01in" cell_S="cell_12" id="cell_2" cell_SW="cell_7" fill="none"/>
		<polygon cell_SE="cell_7" stroke="black" points="213.75, 19.48557158514987  225.0, 38.97114317029974  247.5, 38.97114317029974  258.75, 19.48557158514987  247.5, 0.0  225.0, 0.0  " stroke-width="0.01in" cell_S="cell_13" id="cell_3" cell_SW="cell_8" fill="none"/>
		<polygon cell_SE="cell_8" stroke="black" points="281.25, 19.48557158514987  292.5, 38.97114317029974  315.0, 38.97114317029974  326.25, 19.48557158514987  315.0, 0.0  292.5, 0.0  " cell_NE="cell_0" stroke-width="0.01in" cell_S="cell_14" id="cell_4" cell_SW="cell_9" fill="none"/>
		<polygon cell_NW="cell_0" cell_SE="cell_9" stroke="black" points="45.0, 38.97114317029974  56.25, 58.45671475544961  78.75, 58.45671475544961  90.0, 38.97114317029974  78.75, 19.48557158514987  56.25, 19.48557158514987  " cell_NE="cell_1" stroke-width="0.01in" cell_S="cell_15" id="cell_5" cell_SW="cell_10" fill="none"/>
		<polygon cell_NW="cell_1" cell_SE="cell_10" stroke="black" points="112.5, 38.97114317029974  123.75, 58.45671475544961  146.25, 58.45671475544961  157.5, 38.97114317029974  146.25, 19.48557158514987  123.75, 19.48557158514987  " cell_NE="cell_2" stroke-width="0.01in" cell_S="cell_16" id="cell_6" cell_SW="cell_11" fill="none"/>
		<polygon cell_NW="cell_2" cell_SE="cell_11" stroke="black" points="180.0, 38.97114317029974  191.25, 58.45671475544961  213.75, 58.45671475544961  225.0, 38.97114317029974  213.75, 19.48557158514987  191.25, 19.48557158514987  " cell_NE="cell_3" stroke-width="0.01in" cell_S="cell_17" id="cell_7" cell_SW="cell_12" fill="none"/>
		<polygon cell_NW="cell_3" cell_SE="cell_12" stroke="black" points="247.5, 38.97114317029974  258.75, 58.45671475544961  281.25, 58.45671475544961  292.5, 38.97114317029974  281.25, 19.48557158514987  258.75, 19.48557158514987  " cell_NE="cell_4" stroke-width="0.01in" cell_S="cell_18" id="cell_8" cell_SW="cell_13" fill="none"/>
		<polygon cell_NW="cell_4" cell_SE="cell_13" stroke="black" points="315.0, 38.97114317029974  326.25, 58.45671475544961  348.75, 58.45671475544961  360.0, 38.97114317029974  348.75, 19.48557158514987  326.25, 19.48557158514987  " cell_NE="cell_5" stroke-width="0.01in" cell_S="cell_19" id="cell_9" cell_SW="cell_14" fill="none"/>
		<polygon cell_N="cell_0" cell_NW="cell_5" cell_SE="cell_14" stroke="black" points="11.25, 58.45671475544961  22.5, 77.94228634059948  45.0, 77.94228634059948  56.25, 58.45671475544961  45.0, 38.97114317029974  22.5, 38.97114317029974  " cell_NE="cell_6" stroke-width="0.01in" cell_S="cell_20" id="cell_10" cell_SW="cell_15" fill="none"/>
		<polygon cell_N="cell_1" cell_NW="cell_6" cell_SE="cell_15" stroke="black" points="78.75, 58.45671475544961  90.0, 77.94228634059948  112.5, 77.94228634059948  123.75, 58.45671475544961  112.5, 38.97114317029974  90.0, 38.97114317029974  " cell_NE="cell_7" stroke-width="0.01in" cell_S="cell_21" id="cell_11" cell_SW="cell_16" fill="none"/>
		<polygon cell_N="cell_2" cell_NW="cell_7" cell_SE="cell_16" stroke="black" points="146.25, 58.45671475544961  157.5, 77.94228634059948  180.0, 77.94228634059948  191.25, 58.45671475544961  180.0, 38.97114317029974  157.5, 38.97114317029974  " cell_NE="cell_8" stroke-width="0.01in" cell_S="cell_22" id="cell_12" cell_SW="cell_17" fill="none"/>
		<polygon cell_N="cell_3" cell_NW="cell_8" cell_SE="cell_17" stroke="black" points="213.75, 58.45671475544961  225.0, 77.94228634059948  247.5, 77.94228634059948  258.75, 58.45671475544961  247.5, 38.97114317029974  225.0, 38.97114317029974  " cell_NE="cell_9" stroke-width="0.01in" cell_S="cell_23" id="cell_13" cell_SW="cell_18" fill="none"/>
		<polygon cell_N="cell_4" cell_NW="cell_9" cell_SE="cell_18" stroke="black" points="281.25, 58.45671475544961  292.5, 77.94228634059948  315.0, 77.94228634059948  326.25, 58.45671475544961  315.0, 38.97114317029974  292.5, 38.97114317029974  " cell_NE="cell_10" stroke-width="0.01in" cell_S="cell_24" id="cell_14" cell_SW="cell_19" fill="none"/>
		<polygon cell_N="cell_5" cell_NW="cell_10" cell_SE="cell_19" stroke="black" points="45.0, 77.94228634059948  56.25, 97.427857925749336  78.75, 97.427857925749336  90.0, 77.94228634059948  78.75, 58.45671475544961  56.25, 58.45671475544961  " cell_NE="cell_11" stroke-width="0.01in" cell_S="cell_25" id="cell_15" cell_SW="cell_20" fill="none"/>
		<polygon cell_N="cell_6" cell_NW="cell_11" cell_SE="cell_20" stroke="black" points="112.5, 77.94228634059948  123.75, 97.427857925749336  146.25, 97.427857925749336  157.5, 77.94228634059948  146.25, 58.45671475544961  123.75, 58.45671475544961  " cell_NE="cell_12" stroke-width="0.01in" cell_S="cell_26" id="cell_16" cell_SW="cell_21" fill="none"/>
		<polygon cell_N="cell_7" cell_NW="cell_12" cell_SE="cell_21" stroke="black" points="180.0, 77.94228634059948  191.25, 97.427857925749336  213.75, 97.427857925749336  225.0, 77.94228634059948  213.75, 58.45671475544961  191.25, 58.45671475544961  " cell_NE="cell_13" stroke-width="0.01in" cell_S="cell_27" id="cell_17" cell_SW="cell_22" fill="none"/>
		<polygon cell_N="cell_8" cell_NW="cell_13" cell_SE="cell_22" stroke="black" points="247.5, 77.94228634059948  258.75, 97.427857925749336  281.25, 97.427857925749336  292.5, 77.94228634059948  281.25, 58.45671475544961  258.75, 58.45671475544961  " cell_NE="cell_14" stroke-width="0.01in" cell_S="cell_28" id="cell_18" cell_SW="cell_23" fill="none"/>
		<polygon cell_N="cell_9" cell_NW="cell_14" cell_SE="cell_23" stroke="black" points="315.0, 77.94228634059948  326.25, 97.427857925749336  348.75, 97.427857925749336  360.0, 77.94228634059948  348.75, 58.45671475544961  326.25, 58.45671475544961  " cell_NE="cell_15" stroke-width="0.01in" cell_S="cell_29" id="cell_19" cell_SW="cell_24" fill="none"/>
		<polygon cell_N="cell_10" cell_NW="cell_15" cell_SE="cell_24" stroke="black" points="11.25, 97.427857925749336  22.5, 116.91342951089922  45.0, 116.91342951089922  56.25, 97.427857925749336  45.0, 77.94228634059948  22.5, 77.94228634059948  " cell_NE="cell_16" stroke-width="0.01in" cell_S="cell_30" id="cell_20" cell_SW="cell_25" fill="none"/>
		<polygon cell_N="cell_11" cell_NW="cell_16" cell_SE="cell_25" stroke="black" points="78.75, 97.427857925749336  90.0, 116.91342951089922  112.5, 116.91342951089922  123.75, 97.427857925749336  112.5, 77.94228634059948  90.0, 77.94228634059948  " cell_NE="cell_17" stroke-width="0.01in" cell_S="cell_31" id="cell_21" cell_SW="cell_26" fill="none"/>
		<polygon cell_N="cell_12" cell_NW="cell_17" cell_SE="cell_26" stroke="black" points="146.25, 97.427857925749336  157.5, 116.91342951089922  180.0, 116.91342951089922  191.25, 97.427857925749336  180.0, 77.94228634059948  157.5, 77.94228634059948  " cell_NE="cell_18" stroke-width="0.01in" cell_S="cell_32" id="cell_22" cell_SW="cell_27" fill="none"/>
		<polygon cell_N="cell_13" cell_NW="cell_18" cell_SE="cell_27" stroke="black" points="213.75, 97.427857925749336  225.0, 116.91342951089922  247.5, 116.91342951089922  258.75, 97.427857925749336  247.5, 77.94228634059948  225.0, 77.94228634059948  " cell_NE="cell_19" stroke-width="0.01in" cell_S="cell_33" id="cell_23" cell_SW="cell_28" fill="none"/>
		<polygon cell_N="cell_14" cell_NW="cell_19" cell_SE="cell_28" stroke="black" points="281.25, 97.427857925749336  292.5, 116.91342951089922  315.0, 116.91342951089922  326.25, 97.427857925749336  315.0, 77.94228634059948  292.5, 77.94228634059948  " cell_NE="cell_20" stroke-width="0.01in" cell_S="cell_34" id="cell_24" cell_SW="cell_29" fill="none"/>
		<polygon cell_N="cell_15" cell_NW="cell_20" cell_SE="cell_29" stroke="black" points="45.0, 116.91342951089921  56.25, 136.39900109604906  78.75, 136.39900109604906  90.0, 116.91342951089921  78.75, 97.427857925749336  56.25, 97.427857925749336  " cell_NE="cell_21" stroke-width="0.01in" cell_S="cell_35" id="cell_25" cell_SW="cell_30" fill="none"/>
		<polygon cell_N="cell_16" cell_NW="cell_21" cell_SE="cell_30" stroke="black" points="112.5, 116.91342951089921  123.75, 136.39900109604906  146.25, 136.39900109604906  157.5, 116.91342951089921  146.25, 97.427857925749336  123.75, 97.427857925749336  " cell_NE="cell_22" stroke-width="0.01in" cell_S="cell_36" id="cell_26" cell_SW="cell_31" fill="none"/>
		<polygon cell_N="cell_17" cell_NW="cell_22" cell_SE="cell_31" stroke="black" points="180.0, 116.91342951089921  191.25, 136.39900109604906  213.75, 136.39900109604906  225.0, 116.91342951089921  213.75, 97.427857925749336  191.25, 97.427857925749336  " cell_NE="cell_23" stroke-width="0.01in" cell_S="cell_37" id="cell_27" cell_SW="cell_32" fill="none"/>
		<polygon cell_N="cell_18" cell_NW="cell_23" cell_SE="cell_32" stroke="black" points="247.5, 116.91342951089921  258.75, 136.39900109604906  281.25, 136.39900109604906  292.5, 116.91342951089921  281.25, 97.427857925749336  258.75, 97.427857925749336  " cell_NE="cell_24" stroke-width="0.01in" cell_S="cell_38" id="cell_28" cell_SW="cell_33" fill="none"/>
		<polygon cell_N="cell_19" cell_NW="cell_24" cell_SE="cell_33" stroke="black" points="315.0, 116.91342951089921  326.25, 136.39900109604906  348.75, 136.39900109604906  360.0, 116.91342951089921  348.75, 97.427857925749336  326.25, 97.427857925749336  " cell_NE="cell_25" stroke-width="0.01in" cell_S="cell_39" id="cell_29" cell_SW="cell_34" fill="none"/>
		<polygon cell_N="cell_20" cell_NW="cell_25" cell_SE="cell_34" stroke="black" points="11.25, 136.39900109604909  22.5, 155.88457268119896  45.0, 155.88457268119896  56.25, 136.39900109604909  45.0, 116.91342951089922  22.5, 116.91342951089922  " cell_NE="cell_26" stroke-width="0.01in" cell_S="cell_40" id="cell_30" cell_SW="cell_35" fill="none"/>
		<polygon cell_N="cell_21" cell_NW="cell_26" cell_SE="cell_35" stroke="black" points="78.75, 136.39900109604909  90.0, 155.88457268119896  112.5, 155.88457268119896  123.75, 136.39900109604909  112.5, 116.91342951089922  90.0, 116.91342951089922  " cell_NE="cell_27" stroke-width="0.01in" cell_S="cell_41" id="cell_31" cell_SW="cell_36" fill="none"/>
		<polygon cell_N="cell_22" cell_NW="cell_27" cell_SE="cell_36" stroke="black" points="146.25, 136.39900109604909  157.5, 155.88457268119896  180.0, 155.88457268119896  191.25, 136.39900109604909  180.0, 116.91342951089922  157.5, 116.91342951089922  " cell_NE="cell_28" stroke-width="0.01in" cell_S="cell_42" id="cell_32" cell_SW="cell_37" fill="none"/>
		<polygon cell_N="cell_23" cell_NW="cell_28" cell_SE="cell_37" stroke="black" points="213.75, 136.39900109604909  225.0, 155.88457268119896  247.5, 155.88457268119896  258.75, 136.39900109604909  247.5, 116.91342951089922  225.0, 116.91342951089922  " cell_NE="cell_29" stroke-width="0.01in" cell_S="cell_43" id="cell_33" cell_SW="cell_38" fill="none"/>
		<polygon cell_N="cell_24" cell_NW="cell_29" cell_SE="cell_38" stroke="black" points="281.25, 136.39900109604909  292.5, 155.88457268119896  315.0, 155.88457268119896  326.25, 136.39900109604909  315.0, 116.91342951089922  292.5, 116.91342951089922  " cell_NE="cell_30" stroke-width="0.01in" cell_S="cell_44" id="cell_34" cell_SW="cell_39" fill="none"/>
		<polygon cell_N="cell_25" cell_NW="cell_30" cell_SE="cell_39" stroke="black" points="45.0, 155.88457268119896  56.25, 175.37014426634883  78.75, 175.37014426634883  90.0, 155.88457268119896  78.75, 136.39900109604909  56.25, 136.39900109604909  " cell_NE="cell_31" stroke-width="0.01in" cell_S="cell_45" id="cell_35" cell_SW="cell_40" fill="none"/>
		<polygon cell_N="cell_26" cell_NW="cell_31" cell_SE="cell_40" stroke="black" points="112.5, 155.88457268119896  123.75, 175.37014426634883  146.25, 175.37014426634883  157.5, 155.88457268119896  146.25, 136.39900109604909  123.75, 136.39900109604909  " cell_NE="cell_32" stroke-width="0.01in" cell_S="cell_46" id="cell_36" cell_SW="cell_41" fill="none"/>
		<polygon cell_N="cell_27" cell_NW="cell_32" cell_SE="cell_41" stroke="black" points="180.0, 155.88457268119896  191.25, 175.37014426634883  213.75, 175.37014426634883  225.0, 155.88457268119896  213.75, 136.39900109604909  191.25, 136.39900109604909  " cell_NE="cell_33" stroke-width="0.01in" cell_S="cell_47" id="cell_37" cell_SW="cell_42" fill="none"/>
		<polygon cell_N="cell_28" cell_NW="cell_33" cell_SE="cell_42" stroke="black" points="247.5, 155.88457268119896  258.75, 175.37014426634883  281.25, 175.37014426634883  292.5, 155.88457268119896  281.25, 136.39900109604909  258.75, 136.39900109604909  " cell_NE="cell_34" stroke-width="0.01in" cell_S="cell_48" id="cell_38" cell_SW="cell_43" fill="none"/>
		<polygon cell_N="cell_29" cell_NW="cell_34" cell_SE="cell_43" stroke="black" points="315.0, 155.88457268119896  326.25, 175.37014426634883  348.75, 175.37014426634883  360.0, 155.88457268119896  348.75, 136.39900109604909  326.25, 136.39900109604909  " cell_NE="cell_35" stroke-width="0.01in" cell_S="cell_49" id="cell_39" cell_SW="cell_44" fill="none"/>
		<polygon cell_N="cell_30" cell_NW="cell_35" cell_SE="cell_44" stroke="black" points="11.25, 175.3701442663488  22.5, 194.85571585149867  45.0, 194.85571585149867  56.25, 175.3701442663488  45.0, 155.88457268119896  22.5, 155.88457268119896  " cell_NE="cell_36" stroke-width="0.01in" cell_S="cell_50" id="cell_40" cell_SW="cell_45" fill="none"/>
		<polygon cell_N="cell_31" cell_NW="cell_36" cell_SE="cell_45" stroke="black" points="78.75, 175.3701442663488  90.0, 194.85571585149867  112.5, 194.85571585149867  123.75, 175.3701442663488  112.5, 155.88457268119896  90.0, 155.88457268119896  " cell_NE="cell_37" stroke-width="0.01in" cell_S="cell_51" id="cell_41" cell_SW="cell_46" fill="none"/>
		<polygon cell_N="cell_32" cell_NW="cell_37" cell_SE="cell_46" stroke="black" points="146.25, 175.3701442663488  157.5, 194.85571585149867  180.0, 194.85571585149867  191.25, 175.3701442663488  180.0, 155.88457268119896  157.5, 155.88457268119896  " cell_NE="cell_38" stroke-width="0.01in" cell_S="cell_52" id="cell_42" cell_SW="cell_47" fill="none"/>
		<polygon cell_N="cell_33" cell_NW="cell_38" cell_SE="cell_47" stroke="black" points="213.75, 175.3701442663488  225.0, 194.85571585149867  247.5, 194.85571585149867  258.75, 175.3701442663488  247.5, 155.88457268119896  225.0, 155.88457268119896  " cell_NE="cell_39" stroke-width="0.01in" cell_S="cell_53" id="cell_43" cell_SW="cell_48" fill="none"/>
		<polygon cell_N="cell_34" cell_NW="cell_39" cell_SE="cell_48" stroke="black" points="281.25, 175.3701442663488  292.5, 194.85571585149867  315.0, 194.85571585149867  326.25, 175.3701442663488  315.0, 155.88457268119896  292.5, 155.88457268119896  " cell_NE="cell_40" stroke-width="0.01in" cell_S="cell_54" id="cell_44" cell_SW="cell_49" fill="none"/>
		<polygon cell_N="cell_35" cell_NW="cell_40" cell_SE="cell_49" stroke="black" points="45.0, 194.85571585149867  56.25, 214.34128743664857  78.75, 214.34128743664857  90.0, 194.85571585149867  78.75, 175.3701442663488  56.25, 175.3701442663488  " cell_NE="cell_41" stroke-width="0.01in" cell_S="cell_55" id="cell_45" cell_SW="cell_50" fill="none"/>
		<polygon cell_N="cell_36" cell_NW="cell_41" cell_SE="cell_50" stroke="black" points="112.5, 194.85571585149867  123.75, 214.34128743664857  146.25, 214.34128743664857  157.5, 194.85571585149867  146.25, 175.3701442663488  123.75, 175.3701442663488  " cell_NE="cell_42" stroke-width="0.01in" cell_S="cell_56" id="cell_46" cell_SW="cell_51" fill="none"/>
		<polygon cell_N="cell_37" cell_NW="cell_42" cell_SE="cell_51" stroke="black" points="180.0, 194.85571585149867  191.25, 214.34128743664857  213.75, 214.34128743664857  225.0, 194.85571585149867  213.75, 175.3701442663488  191.25, 175.3701442663488  " cell_NE="cell_43" stroke-width="0.01in" cell_S="cell_57" id="cell_47" cell_SW="cell_52" fill="none"/>
		<polygon cell_N="cell_38" cell_NW="cell_43" cell_SE="cell_52" stroke="black" points="247.5, 194.85571585149867  258.75, 214.34128743664857  281.25, 214.34128743664857  292.5, 194.85571585149867  281.25, 175.3701442663488  258.75, 175.3701442663488  " cell_NE="cell_44" stroke-width="0.01in" cell_S="cell_58" id="cell_48" cell_SW="cell_53" fill="none"/>
		<polygon cell_N="cell_39" cell_NW="cell_44" cell_SE="cell_53" stroke="black" points="315.0, 194.85571585149867  326.25, 214.34128743664857  348.75, 214.34128743664857  360.0, 194.85571585149867  348.75, 175.3701442663488  326.25, 175.3701442663488  " cell_NE="cell_45" stroke-width="0.01in" cell_S="cell_59" id="cell_49" cell_SW="cell_54" fill="none"/>
		<polygon cell_N="cell_40" cell_NW="cell_45" cell_SE="cell_54" stroke="black" points="11.25, 214.34128743664857  22.5, 233.82685902179841  45.0, 233.82685902179841  56.25, 214.34128743664857  45.0, 194.85571585149867  22.5, 194.85571585149867  " cell_NE="cell_46" stroke-width="0.01in" cell_S="cell_60" id="cell_50" cell_SW="cell_55" fill="none"/>
		<polygon cell_N="cell_41" cell_NW="cell_46" cell_SE="cell_55" stroke="black" points="78.75, 214.34128743664857  90.0, 233.82685902179841  112.5, 233.82685902179841  123.75, 214.34128743664857  112.5, 194.85571585149867  90.0, 194.85571585149867  " cell_NE="cell_47" stroke-width="0.01in" cell_S="cell_61" id="cell_51" cell_SW="cell_56" fill="none"/>
		<polygon cell_N="cell_42" cell_NW="cell_47" cell_SE="cell_56" stroke="black" points="146.25, 214.34128743664857  157.5, 233.82685902179841  180.0, 233.82685902179841  191.25, 214.34128743664857  180.0, 194.85571585149867  157.5, 194.85571585149867  " cell_NE="cell_48" stroke-width="0.01in" cell_S="cell_62" id="cell_52" cell_SW="cell_57" fill="none"/>
		<polygon cell_N="cell_43" cell_NW="cell_48" cell_SE="cell_57" stroke="black" points="213.75, 214.34128743664857  225.0, 233.82685902179841  247.5, 233.82685902179841  258.75, 214.34128743664857  247.5, 194.85571585149867  225.0, 194.85571585149867  " cell_NE="cell_49" stroke-width="0.01in" cell_S="cell_63" id="cell_53" cell_SW="cell_58" fill="none"/>
		<polygon cell_N="cell_44" cell_NW="cell_49" cell_SE="cell_58" stroke="black" points="281.25, 214.34128743664857  292.5, 233.82685902179841  315.0, 233.82685902179841  326.25, 214.34128743664857  315.0, 194.85571585149867  292.5, 194.85571585149867  " cell_NE="cell_50" stroke-width="0.01in" cell_S="cell_64" id="cell_54" cell_SW="cell_59" fill="none"/>
		<polygon cell_N="cell_45" cell_NW="cell_50" cell_SE="cell_59" stroke="black" points="45.0, 233.82685902179844  56.25, 253.31243060694828  78.75, 253.31243060694828  90.0, 233.82685902179844  78.75, 214.34128743664857  56.25, 214.34128743664857  " cell_NE="cell_51" stroke-width="0.01in" cell_S="cell_65" id="cell_55" cell_SW="cell_60" fill="none"/>
		<polygon cell_N="cell_46" cell_NW="cell_51" cell_SE="cell_60" stroke="black" points="112.5, 233.82685902179844  123.75, 253.31243060694828  146.25, 253.31243060694828  157.5, 233.82685902179844  146.25, 214.34128743664857  123.75, 214.34128743664857  " cell_NE="cell_52" stroke-width="0.01in" cell_S="cell_66" id="cell_56" cell_SW="cell_61" fill="none"/>
		<polygon cell_N="cell_47" cell_NW="cell_52" cell_SE="cell_61" stroke="black" points="180.0, 233.82685902179844  191.25, 253.31243060694828  213.75, 253.31243060694828  225.0, 233.82685902179844  213.75, 214.34128743664857  191.25, 214.34128743664857  " cell_NE="cell_53" stroke-width="0.01in" cell_S="cell_67" id="cell_57" cell_SW="cell_62" fill="none"/>
		<polygon cell_N="cell_48" cell_NW="cell_53" cell_SE="cell_62" stroke="black" points="247.5, 233.82685902179844  258.75, 253.31243060694828  281.25, 253.31243060694828  292.5, 233.82685902179844  281.25, 214.34128743664857  258.75, 214.34128743664857  " cell_NE="cell_54" stroke-width="0.01in" cell_S="cell_68" id="cell_58" cell_SW="cell_63" fill="none"/>
		<polygon cell_N="cell_49" cell_NW="cell_54" cell_SE="cell_63" stroke="black" points="315.0, 233.82685902179844  326.25, 253.31243060694828  348.75, 253.31243060694828  360.0, 233.82685902179844  348.75, 214.34128743664857  326.25, 214.34128743664857  " cell_NE="cell_55" stroke-width="0.01in" cell_S="cell_69" id="cell_59" cell_SW="cell_64" fill="none"/>
		<polygon cell_N="cell_50" cell_NW="cell_55" cell_SE="cell_64" stroke="black" points="11.25, 253.31243060694831  22.5, 272.79800219209818  45.0, 272.79800219209818  56.25, 253.31243060694831  45.0, 233.82685902179844  22.5, 233.82685902179844  " cell_NE="cell_56" stroke-width="0.01in" cell_S="cell_70" id="cell_60" cell_SW="cell_65" fill="none"/>
		<polygon cell_N="cell_51" cell_NW="cell_56" cell_SE="cell_65" stroke="black" points="78.75, 253.31243060694831  90.0, 272.79800219209818  112.5, 272.79800219209818  123.75, 253.31243060694831  112.5, 233.82685902179844  90.0, 233.82685902179844  " cell_NE="cell_57" stroke-width="0.01in" cell_S="cell_71" id="cell_61" cell_SW="cell_66" fill="none"/>
		<polygon cell_N="cell_52" cell_NW="cell_57" cell_SE="cell_66" stroke="black" points="146.25, 253.31243060694831  157.5, 272.79800219209818  180.0, 272.79800219209818  191.25, 253.31243060694831  180.0, 233.82685902179844  157.5, 233.82685902179844  " cell_NE="cell_58" stroke-width="0.01in" cell_S="cell_72" id="cell_62" cell_SW="cell_67" fill="none"/>
		<polygon cell_N="cell_53" cell_NW="cell_58" cell_SE="cell_67" stroke="black" points="213.75, 253.31243060694831  225.0, 272.79800219209818  247.5, 272.79800219209818  258.75, 253.31243060694831  247.5, 233.82685902179844  225.0, 233.82685902179844  " cell_NE="cell_59" stroke-width="0.01in" cell_S="cell_73" id="cell_63" cell_SW="cell_68" fill="none"/>
		<polygon cell_N="cell_54" cell_NW="cell_59" cell_SE="cell_68" stroke="black" points="281.25, 253.31243060694831  292.5, 272.79800219209818  315.0, 272.79800219209818  326.25, 253.31243060694831  315.0, 233.82685902179844  292.5, 233.82685902179844  " cell_NE="cell_60" stroke-width="0.01in" cell_S="cell_74" id="cell_64" cell_SW="cell_69" fill="none"/>
		<polygon cell_N="cell_55" cell_NW="cell_60" cell_SE="cell_69" stroke="black" points="45.0, 272.79800219209818  56.25, 292.28357377724802  78.75, 292.28357377724802  90.0, 272.79800219209818  78.75, 253.31243060694828  56.25, 253.31243060694828  " cell_NE="cell_61" stroke-width="0.01in" cell_S="cell_75" id="cell_65" cell_SW="cell_70" fill="none"/>
		<polygon cell_N="cell_56" cell_NW="cell_61" cell_SE="cell_70" stroke="black" points="112.5, 272.79800219209818  123.75, 292.28357377724802  146.25, 292.28357377724802  157.5, 272.79800219209818  146.25, 253.31243060694828  123.75, 253.31243060694828  " cell_NE="cell_62" stroke-width="0.01in" cell_S="cell_76" id="cell_66" cell_SW="cell_71" fill="none"/>
		<polygon cell_N="cell_57" cell_NW="cell_62" cell_SE="cell_71" stroke="black" points="180.0, 272.79800219209818  191.25, 292.28357377724802  213.75, 292.28357377724802  225.0, 272.79800219209818  213.75, 253.31243060694828  191.25, 253.31243060694828  " cell_NE="cell_63" stroke-width="0.01in" cell_S="cell_77" id="cell_67" cell_SW="cell_72" fill="none"/>
		<polygon cell_N="cell_58" cell_NW="cell_63" cell_SE="cell_72" stroke="black" points="247.5, 272.79800219209818  258.75, 292.28357377724802  281.25, 292.28357377724802  292.5, 272.79800219209818  281.25, 253.31243060694828  258.75, 253.31243060694828  " cell_NE="cell_64" stroke-width="0.01in" cell_S="cell_78" id="cell_68" cell_SW="cell_73" fill="none"/>
		<polygon cell_N="cell_59" cell_NW="cell_64" cell_SE="cell_73" stroke="black" points="315.0, 272.79800219209818  326.25, 292.28357377724802  348.75, 292.28357377724802  360.0, 272.79800219209818  348.75, 253.31243060694828  326.25, 253.31243060694828  " cell_NE="cell_65" stroke-width="0.01in" cell_S="cell_79" id="cell_69" cell_SW="cell_74" fill="none"/>
		<polygon cell_N="cell_60" cell_NW="cell_65" cell_SE="cell_74" stroke="black" points="11.25, 292.28357377724808  22.5, 311.76914536239792  45.0, 311.76914536239792  56.25, 292.28357377724808  45.0, 272.79800219209818  22.5, 272.79800219209818  " cell_NE="cell_66" stroke-width="0.01in" cell_S="cell_80" id="cell_70" cell_SW="cell_75" fill="none"/>
		<polygon cell_N="cell_61" cell_NW="cell_66" cell_SE="cell_75" stroke="black" points="78.75, 292.28357377724808  90.0, 311.76914536239792  112.5, 311.76914536239792  123.75, 292.28357377724808  112.5, 272.79800219209818  90.0, 272.79800219209818  " cell_NE="cell_67" stroke-width="0.01in" cell_S="cell_81" id="cell_71" cell_SW="cell_76" fill="none"/>
		<polygon cell_N="cell_62" cell_NW="cell_67" cell_SE="cell_76" stroke="black" points="146.25, 292.28357377724808  157.5, 311.76914536239792  180.0, 311.76914536239792  191.25, 292.28357377724808  180.0, 272.79800219209818  157.5, 272.79800219209818  " cell_NE="cell_68" stroke-width="0.01in" cell_S="cell_82" id="cell_72" cell_SW="cell_77" fill="none"/>
		<polygon cell_N="cell_63" cell_NW="cell_68" cell_SE="cell_77" stroke="black" points="213.75, 292.28357377724808  225.0, 311.76914536239792  247.5, 311.76914536239792  258.75, 292.28357377724808  247.5, 272.79800219209818  225.0, 272.79800219209818  " cell_NE="cell_69" stroke-width="0.01in" cell_S="cell_83" id="cell_73" cell_SW="cell_78" fill="none"/>
		<polygon cell_N="cell_64" cell_NW="cell_69" cell_SE="cell_78" stroke="black" points="281.25, 292.28357377724808  292.5, 311.76914536239792  315.0, 311.76914536239792  326.25, 292.28357377724808  315.0, 272.79800219209818  292.5, 272.79800219209818  " cell_NE="cell_70" stroke-width="0.01in" cell_S="cell_84" id="cell_74" cell_SW="cell_79" fill="none"/>
		<polygon cell_N="cell_65" cell_NW="cell_70" cell_SE="cell_79" stroke="black" points="45.0, 311.76914536239792  56.25, 331.25471694754776  78.75, 331.25471694754776  90.0, 311.76914536239792  78.75, 292.28357377724802  56.25, 292.28357377724802  " cell_NE="cell_71" stroke-width="0.01in" cell_S="cell_85" id="cell_75" cell_SW="cell_80" fill="none"/>
		<polygon cell_N="cell_66" cell_NW="cell_71" cell_SE="cell_80" stroke="black" points="112.5, 311.76914536239792  123.75, 331.25471694754776  146.25, 331.25471694754776  157.5, 311.76914536239792  146.25, 292.28357377724802  123.75, 292.28357377724802  " cell_NE="cell_72" stroke-width="0.01in" cell_S="cell_86" id="cell_76" cell_SW="cell_81" fill="none"/>
		<polygon cell_N="cell_67" cell_NW="cell_72" cell_SE="cell_81" stroke="black" points="180.0, 311.76914536239792  191.25, 331.25471694754776  213.75, 331.25471694754776  225.0, 311.76914536239792  213.75, 292.28357377724802  191.25, 292.28357377724802  " cell_NE="cell_73" stroke-width="0.01in" cell_S="cell_87" id="cell_77" cell_SW="cell_82" fill="none"/>
		<polygon cell_N="cell_68" cell_NW="cell_73" cell_SE="cell_82" stroke="black" points="247.5, 311.76914536239792  258.75, 331.25471694754776  281.25, 331.25471694754776  292.5, 311.76914536239792  281.25, 292.28357377724802  258.75, 292.28357377724802  " cell_NE="cell_74" stroke-width="0.01in" cell_S="cell_88" id="cell_78" cell_SW="cell_83" fill="none"/>
		<polygon cell_N="cell_69" cell_NW="cell_74" cell_SE="cell_83" stroke="black" points="315.0, 311.76914536239792  326.25, 331.25471694754776  348.75, 331.25471694754776  360.0, 311.76914536239792  348.75, 292.28357377724802  326.25, 292.28357377724802  " cell_NE="cell_75" stroke-width="0.01in" cell_S="cell_89" id="cell_79" cell_SW="cell_84" fill="none"/>
		<polygon cell_N="cell_70" cell_NW="cell_75" cell_SE="cell_84" stroke="black" points="11.25, 331.25471694754776  22.5, 350.7402885326976  45.0, 350.7402885326976  56.25, 331.25471694754776  45.0, 311.76914536239792  22.5, 311.76914536239792  " cell_NE="cell_76" stroke-width="0.01in" cell_S="cell_90" id="cell_80" cell_SW="cell_85" fill="none"/>
		<polygon cell_N="cell_71" cell_NW="cell_76" cell_SE="cell_85" stroke="black" points="78.75, 331.25471694754776  90.0, 350.7402885326976  112.5, 350.7402885326976  123.75, 331.25471694754776  112.5, 311.76914536239792  90.0, 311.76914536239792  " cell_NE="cell_77" stroke-width="0.01in" cell_S="cell_91" id="cell_81" cell_SW="cell_86" fill="none"/>
		<polygon cell_N="cell_72" cell_NW="cell_77" cell_SE="cell_86" stroke="black" points="146.25, 331.25471694754776  157.5, 350.7402885326976  180.0, 350.7402885326976  191.25, 331.25471694754776  180.0, 311.76914536239792  157.5, 311.76914536239792  " cell_NE="cell_78" stroke-width="0.01in" cell_S="cell_92" id="cell_82" cell_SW="cell_87" fill="none"/>
		<polygon cell_N="cell_73" cell_NW="cell_78" cell_SE="cell_87" stroke="black" points="213.75, 331.25471694754776  225.0, 350.7402885326976  247.5, 350.7402885326976  258.75, 331.25471694754776  247.5, 311.76914536239792  225.0, 311.76914536239792  " cell_NE="cell_79" stroke-width="0.01in" cell_S="cell_93" id="cell_83" cell_SW="cell_88" fill="none"/>
		<polygon cell_N="cell_74" cell_NW="cell_79" cell_SE="cell_88" stroke="black" points="281.25, 331.25471694754776  292.5, 350.7402885326976  315.0, 350.7402885326976  326.25, 331.25471694754776  315.0, 311.76914536239792  292.5, 311.76914536239792  " cell_NE="cell_80" stroke-width="0.01in" cell_S="cell_94" id="cell_84" cell_SW="cell_89" fill="none"/>
	</g>
</svg>
