<?xml version="1.0" encoding="UTF-8" standalone="no"?>
<svg mlns="http://www.w3.org/2000/svg" >
  <g id="map" columns="5" rows="9" cells="45">
	  <path
	     style="fill:none;stroke:#000000;stroke-width:0.01in"
	     d="M 11.25,19.485572 L 22.5,38.971143 L 45,38.971143 L 56.25,19.485572 L 45,0 L 22.5,0 L 11.25,19.485572 z"
	     id="cell_0" />
	  <path
	     style="fill:none;stroke:#000000;stroke-width:0.01in"
	     d="M 78.75,19.485572 L 90,38.971143 L 112.5,38.971143 L 123.75,19.485572 L 112.5,0 L 90,0 L 78.75,19.485572 z"
	     id="cell_1" />
	  <path
	     style="fill:none;stroke:#000000;stroke-width:0.01in"
	     d="M 146.25,19.485572 L 157.5,38.971143 L 180,38.971143 L 191.25,19.485572 L 180,0 L 157.5,0 L 146.25,19.485572 z"
	     id="cell_2" />
	  <path
	     style="fill:none;stroke:#000000;stroke-width:0.01in"
	     d="M 213.75,19.485572 L 225,38.971143 L 247.5,38.971143 L 258.75,19.485572 L 247.5,0 L 225,0 L 213.75,19.485572 z"
	     id="cell_3" />
	  <path
	     style="fill:none;stroke:#000000;stroke-width:0.01in"
	     d="M 281.25,19.485572 L 292.5,38.971143 L 315,38.971143 L 326.25,19.485572 L 315,0 L 292.5,0 L 281.25,19.485572 z"
	     id="cell_4" />
	  <path
	     style="fill:none;stroke:#000000;stroke-width:0.01in"
	     d="M 45,38.971143 L 56.25,58.456715 L 78.75,58.456715 L 90,38.971143 L 78.75,19.485572 L 56.25,19.485572 L 45,38.971143 z"
	     id="cell_5" />
	  <path
	     style="fill:none;stroke:#000000;stroke-width:0.01in"
	     d="M 112.5,38.971143 L 123.75,58.456715 L 146.25,58.456715 L 157.5,38.971143 L 146.25,19.485572 L 123.75,19.485572 L 112.5,38.971143 z"
	     id="cell_6" />
	  <path
	     style="fill:none;stroke:#000000;stroke-width:0.01in"
	     d="M 180,38.971143 L 191.25,58.456715 L 213.75,58.456715 L 225,38.971143 L 213.75,19.485572 L 191.25,19.485572 L 180,38.971143 z"
	     id="cell_7" />
	  <path
	     style="fill:none;stroke:#000000;stroke-width:0.01in"
	     d="M 247.5,38.971143 L 258.75,58.456715 L 281.25,58.456715 L 292.5,38.971143 L 281.25,19.485572 L 258.75,19.485572 L 247.5,38.971143 z"
	     id="cell_8" />
	  <path
	     style="fill:none;stroke:#000000;stroke-width:0.01in"
	     d="M 315,38.971143 L 326.25,58.456715 L 348.75,58.456715 L 360,38.971143 L 348.75,19.485572 L 326.25,19.485572 L 315,38.971143 z"
	     id="cell_9" />
	  <path
	     style="fill:none;stroke:#000000;stroke-width:0.01in"
	     d="M 11.25,58.456715 L 22.5,77.942286 L 45,77.942286 L 56.25,58.456715 L 45,38.971143 L 22.5,38.971143 L 11.25,58.456715 z"
	     id="cell_10" />
	  <path
	     style="fill:none;stroke:#000000;stroke-width:0.01in"
	     d="M 78.75,58.456715 L 90,77.942286 L 112.5,77.942286 L 123.75,58.456715 L 112.5,38.971143 L 90,38.971143 L 78.75,58.456715 z"
	     id="cell_11" />
	  <path
	     style="fill:none;stroke:#000000;stroke-width:0.01in"
	     d="M 146.25,58.456715 L 157.5,77.942286 L 180,77.942286 L 191.25,58.456715 L 180,38.971143 L 157.5,38.971143 L 146.25,58.456715 z"
	     id="cell_12" />
	  <path
	     style="fill:none;stroke:#000000;stroke-width:0.01in"
	     d="M 213.75,58.456715 L 225,77.942286 L 247.5,77.942286 L 258.75,58.456715 L 247.5,38.971143 L 225,38.971143 L 213.75,58.456715 z"
	     id="cell_13" />
	  <path
	     style="fill:none;stroke:#000000;stroke-width:0.01in"
	     d="M 281.25,58.456715 L 292.5,77.942286 L 315,77.942286 L 326.25,58.456715 L 315,38.971143 L 292.5,38.971143 L 281.25,58.456715 z"
	     id="cell_14" />
	  <path
	     style="fill:none;stroke:#000000;stroke-width:0.01in"
	     d="M 45,77.942286 L 56.25,97.427858 L 78.75,97.427858 L 90,77.942286 L 78.75,58.456715 L 56.25,58.456715 L 45,77.942286 z"
	     id="cell_15" />
	  <path
	     style="fill:none;stroke:#000000;stroke-width:0.01in"
	     d="M 112.5,77.942286 L 123.75,97.427858 L 146.25,97.427858 L 157.5,77.942286 L 146.25,58.456715 L 123.75,58.456715 L 112.5,77.942286 z"
	     id="cell_16" />
	  <path
	     style="fill:none;stroke:#000000;stroke-width:0.01in"
	     d="M 180,77.942286 L 191.25,97.427858 L 213.75,97.427858 L 225,77.942286 L 213.75,58.456715 L 191.25,58.456715 L 180,77.942286 z"
	     id="cell_17" />
	  <path
	     style="fill:none;stroke:#000000;stroke-width:0.01in"
	     d="M 247.5,77.942286 L 258.75,97.427858 L 281.25,97.427858 L 292.5,77.942286 L 281.25,58.456715 L 258.75,58.456715 L 247.5,77.942286 z"
	     id="cell_18" />
	  <path
	     style="fill:none;stroke:#000000;stroke-width:0.01in"
	     d="M 315,77.942286 L 326.25,97.427858 L 348.75,97.427858 L 360,77.942286 L 348.75,58.456715 L 326.25,58.456715 L 315,77.942286 z"
	     id="cell_19" />
	  <path
	     style="fill:none;stroke:#000000;stroke-width:0.01in"
	     d="M 11.25,97.427858 L 22.5,116.91343 L 45,116.91343 L 56.25,97.427858 L 45,77.942286 L 22.5,77.942286 L 11.25,97.427858 z"
	     id="cell_20" />
	  <path
	     style="fill:none;stroke:#000000;stroke-width:0.01in"
	     d="M 78.75,97.427858 L 90,116.91343 L 112.5,116.91343 L 123.75,97.427858 L 112.5,77.942286 L 90,77.942286 L 78.75,97.427858 z"
	     id="cell_21" />
	  <path
	     style="fill:none;stroke:#000000;stroke-width:0.01in"
	     d="M 146.25,97.427858 L 157.5,116.91343 L 180,116.91343 L 191.25,97.427858 L 180,77.942286 L 157.5,77.942286 L 146.25,97.427858 z"
	     id="cell_22" />
	  <path
	     style="fill:none;stroke:#000000;stroke-width:0.01in"
	     d="M 213.75,97.427858 L 225,116.91343 L 247.5,116.91343 L 258.75,97.427858 L 247.5,77.942286 L 225,77.942286 L 213.75,97.427858 z"
	     id="cell_23" />
	  <path
	     style="fill:none;stroke:#000000;stroke-width:0.01in"
	     d="M 281.25,97.427858 L 292.5,116.91343 L 315,116.91343 L 326.25,97.427858 L 315,77.942286 L 292.5,77.942286 L 281.25,97.427858 z"
	     id="cell_24" />
	  <path
	     style="fill:none;stroke:#000000;stroke-width:0.01in"
	     d="M 45,116.91343 L 56.25,136.399 L 78.75,136.399 L 90,116.91343 L 78.75,97.427858 L 56.25,97.427858 L 45,116.91343 z"
	     id="cell_25" />
	  <path
	     style="fill:none;stroke:#000000;stroke-width:0.01in"
	     d="M 112.5,116.91343 L 123.75,136.399 L 146.25,136.399 L 157.5,116.91343 L 146.25,97.427858 L 123.75,97.427858 L 112.5,116.91343 z"
	     id="cell_26" />
	  <path
	     style="fill:none;stroke:#000000;stroke-width:0.01in"
	     d="M 180,116.91343 L 191.25,136.399 L 213.75,136.399 L 225,116.91343 L 213.75,97.427858 L 191.25,97.427858 L 180,116.91343 z"
	     id="cell_27" />
	  <path
	     style="fill:none;stroke:#000000;stroke-width:0.01in"
	     d="M 247.5,116.91343 L 258.75,136.399 L 281.25,136.399 L 292.5,116.91343 L 281.25,97.427858 L 258.75,97.427858 L 247.5,116.91343 z"
	     id="cell_28" />
	  <path
	     style="fill:none;stroke:#000000;stroke-width:0.01in"
	     d="M 315,116.91343 L 326.25,136.399 L 348.75,136.399 L 360,116.91343 L 348.75,97.427858 L 326.25,97.427858 L 315,116.91343 z"
	     id="cell_29" />
	  <path
	     style="fill:none;stroke:#000000;stroke-width:0.01in"
	     d="M 11.25,136.399 L 22.5,155.88457 L 45,155.88457 L 56.25,136.399 L 45,116.91343 L 22.5,116.91343 L 11.25,136.399 z"
	     id="cell_30" />
	  <path
	     style="fill:none;stroke:#000000;stroke-width:0.01in"
	     d="M 78.75,136.399 L 90,155.88457 L 112.5,155.88457 L 123.75,136.399 L 112.5,116.91343 L 90,116.91343 L 78.75,136.399 z"
	     id="cell_31" />
	  <path
	     style="fill:none;stroke:#000000;stroke-width:0.01in"
	     d="M 146.25,136.399 L 157.5,155.88457 L 180,155.88457 L 191.25,136.399 L 180,116.91343 L 157.5,116.91343 L 146.25,136.399 z"
	     id="cell_32" />
	  <path
	     style="fill:none;stroke:#000000;stroke-width:0.01in"
	     d="M 213.75,136.399 L 225,155.88457 L 247.5,155.88457 L 258.75,136.399 L 247.5,116.91343 L 225,116.91343 L 213.75,136.399 z"
	     id="cell_33" />
	  <path
	     style="fill:none;stroke:#000000;stroke-width:0.01in"
	     d="M 281.25,136.399 L 292.5,155.88457 L 315,155.88457 L 326.25,136.399 L 315,116.91343 L 292.5,116.91343 L 281.25,136.399 z"
	     id="cell_34" />
	  <path
	     style="fill:none;stroke:#000000;stroke-width:0.01in"
	     d="M 45,155.88457 L 56.25,175.37014 L 78.75,175.37014 L 90,155.88457 L 78.75,136.399 L 56.25,136.399 L 45,155.88457 z"
	     id="cell_35" />
	  <path
	     style="fill:none;stroke:#000000;stroke-width:0.01in"
	     d="M 112.5,155.88457 L 123.75,175.37014 L 146.25,175.37014 L 157.5,155.88457 L 146.25,136.399 L 123.75,136.399 L 112.5,155.88457 z"
	     id="cell_36" />
	  <path
	     style="fill:none;stroke:#000000;stroke-width:0.01in"
	     d="M 180,155.88457 L 191.25,175.37014 L 213.75,175.37014 L 225,155.88457 L 213.75,136.399 L 191.25,136.399 L 180,155.88457 z"
	     id="cell_37" />
	  <path
	     style="fill:none;stroke:#000000;stroke-width:0.01in"
	     d="M 247.5,155.88457 L 258.75,175.37014 L 281.25,175.37014 L 292.5,155.88457 L 281.25,136.399 L 258.75,136.399 L 247.5,155.88457 z"
	     id="cell_38" />
	  <path
	     style="fill:none;stroke:#000000;stroke-width:0.01in"
	     d="M 315,155.88457 L 326.25,175.37014 L 348.75,175.37014 L 360,155.88457 L 348.75,136.399 L 326.25,136.399 L 315,155.88457 z"
	     id="cell_39" />
	  <path
	     style="fill:none;stroke:#000000;stroke-width:0.01in"
	     d="M 11.25,175.37014 L 22.5,194.85572 L 45,194.85572 L 56.25,175.37014 L 45,155.88457 L 22.5,155.88457 L 11.25,175.37014 z"
	     id="cell_40" />
	  <path
	     style="fill:none;stroke:#000000;stroke-width:0.01in"
	     d="M 78.75,175.37014 L 90,194.85572 L 112.5,194.85572 L 123.75,175.37014 L 112.5,155.88457 L 90,155.88457 L 78.75,175.37014 z"
	     id="cell_41" />
	  <path
	     style="fill:none;stroke:#000000;stroke-width:0.01in"
	     d="M 146.25,175.37014 L 157.5,194.85572 L 180,194.85572 L 191.25,175.37014 L 180,155.88457 L 157.5,155.88457 L 146.25,175.37014 z"
	     id="cell_42" />
	  <path
	     style="fill:none;stroke:#000000;stroke-width:0.01in"
	     d="M 213.75,175.37014 L 225,194.85572 L 247.5,194.85572 L 258.75,175.37014 L 247.5,155.88457 L 225,155.88457 L 213.75,175.37014 z"
	     id="cell_43" />
	  <path
	     style="fill:none;stroke:#000000;stroke-width:0.01in"
	     d="M 281.25,175.37014 L 292.5,194.85572 L 315,194.85572 L 326.25,175.37014 L 315,155.88457 L 292.5,155.88457 L 281.25,175.37014 z"
	     id="cell_44" />
	  <path
	     style="fill:none;stroke:#000000;stroke-width:0.01in"
	     d="M 45,194.85572 L 56.25,214.34129 L 78.75,214.34129 L 90,194.85572 L 78.75,175.37014 L 56.25,175.37014 L 45,194.85572 z"
	     id="cell_45" />
	  <path
	     style="fill:none;stroke:#000000;stroke-width:0.01in"
	     d="M 112.5,194.85572 L 123.75,214.34129 L 146.25,214.34129 L 157.5,194.85572 L 146.25,175.37014 L 123.75,175.37014 L 112.5,194.85572 z"
	     id="cell_46" />
	  <path
	     style="fill:none;stroke:#000000;stroke-width:0.01in"
	     d="M 180,194.85572 L 191.25,214.34129 L 213.75,214.34129 L 225,194.85572 L 213.75,175.37014 L 191.25,175.37014 L 180,194.85572 z"
	     id="cell_47" />
	  <path
	     style="fill:none;stroke:#000000;stroke-width:0.01in"
	     d="M 247.5,194.85572 L 258.75,214.34129 L 281.25,214.34129 L 292.5,194.85572 L 281.25,175.37014 L 258.75,175.37014 L 247.5,194.85572 z"
	     id="cell_48" />
	  <path
	     style="fill:none;stroke:#000000;stroke-width:0.01in"
	     d="M 315,194.85572 L 326.25,214.34129 L 348.75,214.34129 L 360,194.85572 L 348.75,175.37014 L 326.25,175.37014 L 315,194.85572 z"
	     id="cell_49" />
	  <path
	     style="fill:none;stroke:#000000;stroke-width:0.01in"
	     d="M 11.25,214.34129 L 22.5,233.82686 L 45,233.82686 L 56.25,214.34129 L 45,194.85572 L 22.5,194.85572 L 11.25,214.34129 z"
	     id="cell_50" />
	  <path
	     style="fill:none;stroke:#000000;stroke-width:0.01in"
	     d="M 78.75,214.34129 L 90,233.82686 L 112.5,233.82686 L 123.75,214.34129 L 112.5,194.85572 L 90,194.85572 L 78.75,214.34129 z"
	     id="cell_51" />
	  <path
	     style="fill:none;stroke:#000000;stroke-width:0.01in"
	     d="M 146.25,214.34129 L 157.5,233.82686 L 180,233.82686 L 191.25,214.34129 L 180,194.85572 L 157.5,194.85572 L 146.25,214.34129 z"
	     id="cell_52" />
	  <path
	     style="fill:none;stroke:#000000;stroke-width:0.01in"
	     d="M 213.75,214.34129 L 225,233.82686 L 247.5,233.82686 L 258.75,214.34129 L 247.5,194.85572 L 225,194.85572 L 213.75,214.34129 z"
	     id="cell_53" />
	  <path
	     style="fill:none;stroke:#000000;stroke-width:0.01in"
	     d="M 281.25,214.34129 L 292.5,233.82686 L 315,233.82686 L 326.25,214.34129 L 315,194.85572 L 292.5,194.85572 L 281.25,214.34129 z"
	     id="cell_54" />
	  <path
	     style="fill:none;stroke:#000000;stroke-width:0.01in"
	     d="M 45,233.82686 L 56.25,253.31243 L 78.75,253.31243 L 90,233.82686 L 78.75,214.34129 L 56.25,214.34129 L 45,233.82686 z"
	     id="cell_55" />
	  <path
	     style="fill:none;stroke:#000000;stroke-width:0.01in"
	     d="M 112.5,233.82686 L 123.75,253.31243 L 146.25,253.31243 L 157.5,233.82686 L 146.25,214.34129 L 123.75,214.34129 L 112.5,233.82686 z"
	     id="cell_56" />
	  <path
	     style="fill:none;stroke:#000000;stroke-width:0.01in"
	     d="M 180,233.82686 L 191.25,253.31243 L 213.75,253.31243 L 225,233.82686 L 213.75,214.34129 L 191.25,214.34129 L 180,233.82686 z"
	     id="cell_57" />
	  <path
	     style="fill:none;stroke:#000000;stroke-width:0.01in"
	     d="M 247.5,233.82686 L 258.75,253.31243 L 281.25,253.31243 L 292.5,233.82686 L 281.25,214.34129 L 258.75,214.34129 L 247.5,233.82686 z"
	     id="cell_58" />
	  <path
	     style="fill:none;stroke:#000000;stroke-width:0.01in"
	     d="M 315,233.82686 L 326.25,253.31243 L 348.75,253.31243 L 360,233.82686 L 348.75,214.34129 L 326.25,214.34129 L 315,233.82686 z"
	     id="cell_59" />
	  <path
	     style="fill:none;stroke:#000000;stroke-width:0.01in"
	     d="M 11.25,253.31243 L 22.5,272.798 L 45,272.798 L 56.25,253.31243 L 45,233.82686 L 22.5,233.82686 L 11.25,253.31243 z"
	     id="cell_60" />
	  <path
	     style="fill:none;stroke:#000000;stroke-width:0.01in"
	     d="M 78.75,253.31243 L 90,272.798 L 112.5,272.798 L 123.75,253.31243 L 112.5,233.82686 L 90,233.82686 L 78.75,253.31243 z"
	     id="cell_61" />
	  <path
	     style="fill:none;stroke:#000000;stroke-width:0.01in"
	     d="M 146.25,253.31243 L 157.5,272.798 L 180,272.798 L 191.25,253.31243 L 180,233.82686 L 157.5,233.82686 L 146.25,253.31243 z"
	     id="cell_62" />
	  <path
	     style="fill:none;stroke:#000000;stroke-width:0.01in"
	     d="M 213.75,253.31243 L 225,272.798 L 247.5,272.798 L 258.75,253.31243 L 247.5,233.82686 L 225,233.82686 L 213.75,253.31243 z"
	     id="cell_63" />
	  <path
	     style="fill:none;stroke:#000000;stroke-width:0.01in"
	     d="M 281.25,253.31243 L 292.5,272.798 L 315,272.798 L 326.25,253.31243 L 315,233.82686 L 292.5,233.82686 L 281.25,253.31243 z"
	     id="cell_64" />
	  <path
	     style="fill:none;stroke:#000000;stroke-width:0.01in"
	     d="M 45,272.798 L 56.25,292.28357 L 78.75,292.28357 L 90,272.798 L 78.75,253.31243 L 56.25,253.31243 L 45,272.798 z"
	     id="cell_65" />
	  <path
	     style="fill:none;stroke:#000000;stroke-width:0.01in"
	     d="M 112.5,272.798 L 123.75,292.28357 L 146.25,292.28357 L 157.5,272.798 L 146.25,253.31243 L 123.75,253.31243 L 112.5,272.798 z"
	     id="cell_66" />
	  <path
	     style="fill:none;stroke:#000000;stroke-width:0.01in"
	     d="M 180,272.798 L 191.25,292.28357 L 213.75,292.28357 L 225,272.798 L 213.75,253.31243 L 191.25,253.31243 L 180,272.798 z"
	     id="cell_67" />
	  <path
	     style="fill:none;stroke:#000000;stroke-width:0.01in"
	     d="M 247.5,272.798 L 258.75,292.28357 L 281.25,292.28357 L 292.5,272.798 L 281.25,253.31243 L 258.75,253.31243 L 247.5,272.798 z"
	     id="cell_68" />
	  <path
	     style="fill:none;stroke:#000000;stroke-width:0.01in"
	     d="M 315,272.798 L 326.25,292.28357 L 348.75,292.28357 L 360,272.798 L 348.75,253.31243 L 326.25,253.31243 L 315,272.798 z"
	     id="cell_69" />
	  <path
	     style="fill:none;stroke:#000000;stroke-width:0.01in"
	     d="M 11.25,292.28357 L 22.5,311.76915 L 45,311.76915 L 56.25,292.28357 L 45,272.798 L 22.5,272.798 L 11.25,292.28357 z"
	     id="cell_70" />
	  <path
	     style="fill:none;stroke:#000000;stroke-width:0.01in"
	     d="M 78.75,292.28357 L 90,311.76915 L 112.5,311.76915 L 123.75,292.28357 L 112.5,272.798 L 90,272.798 L 78.75,292.28357 z"
	     id="cell_71" />
	  <path
	     style="fill:none;stroke:#000000;stroke-width:0.01in"
	     d="M 146.25,292.28357 L 157.5,311.76915 L 180,311.76915 L 191.25,292.28357 L 180,272.798 L 157.5,272.798 L 146.25,292.28357 z"
	     id="cell_72" />
	  <path
	     style="fill:none;stroke:#000000;stroke-width:0.01in"
	     d="M 213.75,292.28357 L 225,311.76915 L 247.5,311.76915 L 258.75,292.28357 L 247.5,272.798 L 225,272.798 L 213.75,292.28357 z"
	     id="cell_73" />
	  <path
	     style="fill:none;stroke:#000000;stroke-width:0.01in"
	     d="M 281.25,292.28357 L 292.5,311.76915 L 315,311.76915 L 326.25,292.28357 L 315,272.798 L 292.5,272.798 L 281.25,292.28357 z"
	     id="cell_74" />
	  <path
	     style="fill:none;stroke:#000000;stroke-width:0.01in"
	     d="M 45,311.76915 L 56.25,331.25472 L 78.75,331.25472 L 90,311.76915 L 78.75,292.28357 L 56.25,292.28357 L 45,311.76915 z"
	     id="cell_75" />
	  <path
	     style="fill:none;stroke:#000000;stroke-width:0.01in"
	     d="M 112.5,311.76915 L 123.75,331.25472 L 146.25,331.25472 L 157.5,311.76915 L 146.25,292.28357 L 123.75,292.28357 L 112.5,311.76915 z"
	     id="cell_76" />
	  <path
	     style="fill:none;stroke:#000000;stroke-width:0.01in"
	     d="M 180,311.76915 L 191.25,331.25472 L 213.75,331.25472 L 225,311.76915 L 213.75,292.28357 L 191.25,292.28357 L 180,311.76915 z"
	     id="cell_77" />
	  <path
	     style="fill:none;stroke:#000000;stroke-width:0.01in"
	     d="M 247.5,311.76915 L 258.75,331.25472 L 281.25,331.25472 L 292.5,311.76915 L 281.25,292.28357 L 258.75,292.28357 L 247.5,311.76915 z"
	     id="cell_78" />
	  <path
	     style="fill:none;stroke:#000000;stroke-width:0.01in"
	     d="M 315,311.76915 L 326.25,331.25472 L 348.75,331.25472 L 360,311.76915 L 348.75,292.28357 L 326.25,292.28357 L 315,311.76915 z"
	     id="cell_79" />
	  <path
	     style="fill:none;stroke:#000000;stroke-width:0.01in"
	     d="M 11.25,331.25472 L 22.5,350.74029 L 45,350.74029 L 56.25,331.25472 L 45,311.76915 L 22.5,311.76915 L 11.25,331.25472 z"
	     id="cell_80" />
	  <path
	     style="fill:none;stroke:#000000;stroke-width:0.01in"
	     d="M 78.75,331.25472 L 90,350.74029 L 112.5,350.74029 L 123.75,331.25472 L 112.5,311.76915 L 90,311.76915 L 78.75,331.25472 z"
	     id="cell_81" />
	  <path
	     style="fill:none;stroke:#000000;stroke-width:0.01in"
	     d="M 146.25,331.25472 L 157.5,350.74029 L 180,350.74029 L 191.25,331.25472 L 180,311.76915 L 157.5,311.76915 L 146.25,331.25472 z"
	     id="cell_82" />
	  <path
	     style="fill:none;stroke:#000000;stroke-width:0.01in"
	     d="M 213.75,331.25472 L 225,350.74029 L 247.5,350.74029 L 258.75,331.25472 L 247.5,311.76915 L 225,311.76915 L 213.75,331.25472 z"
	     id="cell_83" />
	  <path
	     style="fill:none;stroke:#000000;stroke-width:0.01in"
	     d="M 281.25,331.25472 L 292.5,350.74029 L 315,350.74029 L 326.25,331.25472 L 315,311.76915 L 292.5,311.76915 L 281.25,331.25472 z"
	     id="cell_84" />
	</g>
</svg>
